<svg width="375" height="511" viewBox="0 0 375 511" fill="none" xmlns="http://www.w3.org/2000/svg">
<path d="M98.3917 86L90.6317 59.6H95.1517L101.072 82.28L106.832 59.6H111.232L117.032 82.32L122.912 59.6H127.272L119.552 86H114.512L110.312 70.16L108.992 64.08H108.952L107.632 70.16L103.472 86H98.3917ZM138.897 86.4C136.897 86.4 135.137 85.9867 133.617 85.16C132.097 84.3333 130.911 83.1467 130.057 81.6C129.231 80.0267 128.817 78.16 128.817 76C128.817 73.84 129.231 71.9867 130.057 70.44C130.911 68.8667 132.084 67.6667 133.577 66.84C135.071 66.0133 136.764 65.6 138.657 65.6C140.604 65.6 142.257 66 143.617 66.8C144.977 67.6 146.017 68.6933 146.737 70.08C147.457 71.4667 147.817 73.04 147.817 74.8C147.817 75.28 147.804 75.7333 147.777 76.16C147.751 76.5867 147.711 76.96 147.657 77.28H131.577V74H145.777L143.657 74.64C143.657 72.8267 143.204 71.44 142.297 70.48C141.391 69.4933 140.151 69 138.577 69C137.431 69 136.431 69.2667 135.577 69.8C134.724 70.3333 134.071 71.1333 133.617 72.2C133.164 73.24 132.937 74.52 132.937 76.04C132.937 77.5333 133.177 78.8 133.657 79.84C134.137 80.88 134.817 81.6667 135.697 82.2C136.577 82.7333 137.617 83 138.817 83C140.151 83 141.231 82.7467 142.057 82.24C142.884 81.7333 143.537 81.0267 144.017 80.12L147.417 81.72C146.937 82.68 146.284 83.52 145.457 84.24C144.657 84.9333 143.697 85.4667 142.577 85.84C141.457 86.2133 140.231 86.4 138.897 86.4ZM177.79 73.16C177.79 71.8267 177.417 70.8 176.67 70.08C175.95 69.3333 174.95 68.96 173.67 68.96C172.47 68.96 171.443 69.24 170.59 69.8C169.737 70.36 169.11 71.2667 168.71 72.52L165.11 71C165.617 69.3733 166.603 68.0667 168.07 67.08C169.563 66.0933 171.483 65.6 173.83 65.6C175.43 65.6 176.843 65.8667 178.07 66.4C179.297 66.9067 180.257 67.68 180.95 68.72C181.67 69.76 182.03 71.0933 182.03 72.72V81.64C182.03 82.6267 182.523 83.12 183.51 83.12C183.99 83.12 184.457 83.0533 184.91 82.92L184.67 85.88C184.057 86.1733 183.283 86.32 182.35 86.32C181.497 86.32 180.723 86.1733 180.03 85.88C179.363 85.56 178.83 85.0933 178.43 84.48C178.057 83.84 177.87 83.0533 177.87 82.12V81.84L178.75 81.8C178.51 82.84 178.017 83.7067 177.27 84.4C176.523 85.0667 175.657 85.5733 174.67 85.92C173.683 86.24 172.683 86.4 171.67 86.4C170.417 86.4 169.283 86.2 168.27 85.8C167.283 85.4 166.497 84.8 165.91 84C165.35 83.1733 165.07 82.16 165.07 80.96C165.07 79.4667 165.55 78.24 166.51 77.28C167.497 76.32 168.883 75.6667 170.67 75.32L178.43 73.8L178.39 76.8L172.75 77.96C171.63 78.1733 170.79 78.48 170.23 78.88C169.67 79.28 169.39 79.8667 169.39 80.64C169.39 81.3867 169.67 81.9867 170.23 82.44C170.817 82.8667 171.59 83.08 172.55 83.08C173.217 83.08 173.857 83 174.47 82.84C175.11 82.68 175.683 82.4267 176.19 82.08C176.697 81.7067 177.083 81.24 177.35 80.68C177.643 80.0933 177.79 79.4 177.79 78.6V73.16ZM189.043 86V66H192.683L193.083 69.6C193.616 68.2933 194.403 67.3067 195.443 66.64C196.509 65.9467 197.816 65.6 199.363 65.6C199.763 65.6 200.163 65.64 200.563 65.72C200.963 65.7733 201.296 65.8667 201.563 66L200.963 69.76C200.669 69.6533 200.336 69.5733 199.963 69.52C199.616 69.44 199.136 69.4 198.523 69.4C197.696 69.4 196.883 69.6267 196.083 70.08C195.283 70.5067 194.616 71.16 194.083 72.04C193.576 72.92 193.323 74.04 193.323 75.4V86H189.043ZM213.897 86.4C211.897 86.4 210.137 85.9867 208.617 85.16C207.097 84.3333 205.911 83.1467 205.057 81.6C204.231 80.0267 203.817 78.16 203.817 76C203.817 73.84 204.231 71.9867 205.057 70.44C205.911 68.8667 207.084 67.6667 208.577 66.84C210.071 66.0133 211.764 65.6 213.657 65.6C215.604 65.6 217.257 66 218.617 66.8C219.977 67.6 221.017 68.6933 221.737 70.08C222.457 71.4667 222.817 73.04 222.817 74.8C222.817 75.28 222.804 75.7333 222.777 76.16C222.751 76.5867 222.711 76.96 222.657 77.28H206.577V74H220.777L218.657 74.64C218.657 72.8267 218.204 71.44 217.297 70.48C216.391 69.4933 215.151 69 213.577 69C212.431 69 211.431 69.2667 210.577 69.8C209.724 70.3333 209.071 71.1333 208.617 72.2C208.164 73.24 207.937 74.52 207.937 76.04C207.937 77.5333 208.177 78.8 208.657 79.84C209.137 80.88 209.817 81.6667 210.697 82.2C211.577 82.7333 212.617 83 213.817 83C215.151 83 216.231 82.7467 217.057 82.24C217.884 81.7333 218.537 81.0267 219.017 80.12L222.417 81.72C221.937 82.68 221.284 83.52 220.457 84.24C219.657 84.9333 218.697 85.4667 217.577 85.84C216.457 86.2133 215.231 86.4 213.897 86.4ZM252.79 73.16C252.79 71.8267 252.417 70.8 251.67 70.08C250.95 69.3333 249.95 68.96 248.67 68.96C247.47 68.96 246.443 69.24 245.59 69.8C244.737 70.36 244.11 71.2667 243.71 72.52L240.11 71C240.617 69.3733 241.603 68.0667 243.07 67.08C244.563 66.0933 246.483 65.6 248.83 65.6C250.43 65.6 251.843 65.8667 253.07 66.4C254.297 66.9067 255.257 67.68 255.95 68.72C256.67 69.76 257.03 71.0933 257.03 72.72V81.64C257.03 82.6267 257.523 83.12 258.51 83.12C258.99 83.12 259.457 83.0533 259.91 82.92L259.67 85.88C259.057 86.1733 258.283 86.32 257.35 86.32C256.497 86.32 255.723 86.1733 255.03 85.88C254.363 85.56 253.83 85.0933 253.43 84.48C253.057 83.84 252.87 83.0533 252.87 82.12V81.84L253.75 81.8C253.51 82.84 253.017 83.7067 252.27 84.4C251.523 85.0667 250.657 85.5733 249.67 85.92C248.683 86.24 247.683 86.4 246.67 86.4C245.417 86.4 244.283 86.2 243.27 85.8C242.283 85.4 241.497 84.8 240.91 84C240.35 83.1733 240.07 82.16 240.07 80.96C240.07 79.4667 240.55 78.24 241.51 77.28C242.497 76.32 243.883 75.6667 245.67 75.32L253.43 73.8L253.39 76.8L247.75 77.96C246.63 78.1733 245.79 78.48 245.23 78.88C244.67 79.28 244.39 79.8667 244.39 80.64C244.39 81.3867 244.67 81.9867 245.23 82.44C245.817 82.8667 246.59 83.08 247.55 83.08C248.217 83.08 248.857 83 249.47 82.84C250.11 82.68 250.683 82.4267 251.19 82.08C251.697 81.7067 252.083 81.24 252.35 80.68C252.643 80.0933 252.79 79.4 252.79 78.6V73.16ZM264.043 86V66H267.843L268.123 71.2L267.563 70.64C267.936 69.4933 268.469 68.5467 269.163 67.8C269.883 67.0267 270.723 66.4667 271.683 66.12C272.669 65.7733 273.709 65.6 274.803 65.6C276.216 65.6 277.483 65.88 278.603 66.44C279.749 66.9733 280.656 67.7867 281.323 68.88C281.989 69.9733 282.323 71.36 282.323 73.04V86H278.043V74.36C278.043 72.3867 277.629 71.0267 276.803 70.28C276.003 69.5067 274.989 69.12 273.763 69.12C272.883 69.12 272.029 69.3333 271.203 69.76C270.376 70.16 269.683 70.8133 269.123 71.72C268.589 72.6267 268.323 73.84 268.323 75.36V86H264.043ZM68.1167 110.64C67.1834 110.64 66.4634 110.413 65.9567 109.96C65.4767 109.48 65.2367 108.813 65.2367 107.96C65.2367 107.107 65.4767 106.453 65.9567 106C66.4634 105.547 67.1834 105.32 68.1167 105.32C69.0234 105.32 69.7167 105.547 70.1967 106C70.7034 106.453 70.9567 107.107 70.9567 107.96C70.9567 108.813 70.7034 109.48 70.1967 109.96C69.7167 110.413 69.0234 110.64 68.1167 110.64ZM70.2367 114V134H65.9567V114H70.2367ZM76.9333 134V114H80.7333L81.0133 119.2L80.4533 118.64C80.8266 117.493 81.3599 116.547 82.0533 115.8C82.7733 115.027 83.6133 114.467 84.5733 114.12C85.5599 113.773 86.5999 113.6 87.6933 113.6C89.1066 113.6 90.3733 113.88 91.4933 114.44C92.6399 114.973 93.5466 115.787 94.2133 116.88C94.8799 117.973 95.2133 119.36 95.2133 121.04V134H90.9333V122.36C90.9333 120.387 90.5199 119.027 89.6933 118.28C88.8933 117.507 87.8799 117.12 86.6533 117.12C85.7733 117.12 84.9199 117.333 84.0933 117.76C83.2666 118.16 82.5733 118.813 82.0133 119.72C81.4799 120.627 81.2133 121.84 81.2133 123.36V134H76.9333ZM107.305 108.12V128C107.305 128.987 107.558 129.707 108.065 130.16C108.598 130.613 109.305 130.84 110.185 130.84C110.905 130.84 111.531 130.733 112.065 130.52C112.598 130.28 113.091 129.96 113.545 129.56L114.505 132.68C113.891 133.213 113.131 133.64 112.225 133.96C111.345 134.253 110.358 134.4 109.265 134.4C108.118 134.4 107.065 134.213 106.105 133.84C105.145 133.467 104.398 132.867 103.865 132.04C103.331 131.187 103.051 130.08 103.025 128.72V109.32L107.305 108.12ZM114.185 114V117.36H99.1845V114H114.185ZM127.218 134.4C125.218 134.4 123.458 133.987 121.938 133.16C120.418 132.333 119.231 131.147 118.378 129.6C117.551 128.027 117.138 126.16 117.138 124C117.138 121.84 117.551 119.987 118.378 118.44C119.231 116.867 120.404 115.667 121.898 114.84C123.391 114.013 125.084 113.6 126.978 113.6C128.924 113.6 130.578 114 131.938 114.8C133.298 115.6 134.338 116.693 135.058 118.08C135.778 119.467 136.138 121.04 136.138 122.8C136.138 123.28 136.124 123.733 136.098 124.16C136.071 124.587 136.031 124.96 135.978 125.28H119.898V122H134.098L131.978 122.64C131.978 120.827 131.524 119.44 130.618 118.48C129.711 117.493 128.471 117 126.898 117C125.751 117 124.751 117.267 123.898 117.8C123.044 118.333 122.391 119.133 121.938 120.2C121.484 121.24 121.258 122.52 121.258 124.04C121.258 125.533 121.498 126.8 121.978 127.84C122.458 128.88 123.138 129.667 124.018 130.2C124.898 130.733 125.938 131 127.138 131C128.471 131 129.551 130.747 130.378 130.24C131.204 129.733 131.858 129.027 132.338 128.12L135.738 129.72C135.258 130.68 134.604 131.52 133.778 132.24C132.978 132.933 132.018 133.467 130.898 133.84C129.778 134.213 128.551 134.4 127.218 134.4ZM141.543 134V114H145.183L145.583 117.6C146.116 116.293 146.903 115.307 147.943 114.64C149.009 113.947 150.316 113.6 151.863 113.6C152.263 113.6 152.663 113.64 153.063 113.72C153.463 113.773 153.796 113.867 154.063 114L153.463 117.76C153.169 117.653 152.836 117.573 152.463 117.52C152.116 117.44 151.636 117.4 151.023 117.4C150.196 117.4 149.383 117.627 148.583 118.08C147.783 118.507 147.116 119.16 146.583 120.04C146.076 120.92 145.823 122.04 145.823 123.4V134H141.543ZM158.105 134V114H161.905L162.185 119.2L161.625 118.64C161.998 117.493 162.532 116.547 163.225 115.8C163.945 115.027 164.785 114.467 165.745 114.12C166.732 113.773 167.772 113.6 168.865 113.6C170.278 113.6 171.545 113.88 172.665 114.44C173.812 114.973 174.718 115.787 175.385 116.88C176.052 117.973 176.385 119.36 176.385 121.04V134H172.105V122.36C172.105 120.387 171.692 119.027 170.865 118.28C170.065 117.507 169.052 117.12 167.825 117.12C166.945 117.12 166.092 117.333 165.265 117.76C164.438 118.16 163.745 118.813 163.185 119.72C162.652 120.627 162.385 121.84 162.385 123.36V134H158.105ZM194.431 121.16C194.431 119.827 194.057 118.8 193.311 118.08C192.591 117.333 191.591 116.96 190.311 116.96C189.111 116.96 188.084 117.24 187.231 117.8C186.377 118.36 185.751 119.267 185.351 120.52L181.751 119C182.257 117.373 183.244 116.067 184.711 115.08C186.204 114.093 188.124 113.6 190.471 113.6C192.071 113.6 193.484 113.867 194.711 114.4C195.937 114.907 196.897 115.68 197.591 116.72C198.311 117.76 198.671 119.093 198.671 120.72V129.64C198.671 130.627 199.164 131.12 200.151 131.12C200.631 131.12 201.097 131.053 201.551 130.92L201.311 133.88C200.697 134.173 199.924 134.32 198.991 134.32C198.137 134.32 197.364 134.173 196.671 133.88C196.004 133.56 195.471 133.093 195.071 132.48C194.697 131.84 194.511 131.053 194.511 130.12V129.84L195.391 129.8C195.151 130.84 194.657 131.707 193.911 132.4C193.164 133.067 192.297 133.573 191.311 133.92C190.324 134.24 189.324 134.4 188.311 134.4C187.057 134.4 185.924 134.2 184.911 133.8C183.924 133.4 183.137 132.8 182.551 132C181.991 131.173 181.711 130.16 181.711 128.96C181.711 127.467 182.191 126.24 183.151 125.28C184.137 124.32 185.524 123.667 187.311 123.32L195.071 121.8L195.031 124.8L189.391 125.96C188.271 126.173 187.431 126.48 186.871 126.88C186.311 127.28 186.031 127.867 186.031 128.64C186.031 129.387 186.311 129.987 186.871 130.44C187.457 130.867 188.231 131.08 189.191 131.08C189.857 131.08 190.497 131 191.111 130.84C191.751 130.68 192.324 130.427 192.831 130.08C193.337 129.707 193.724 129.24 193.991 128.68C194.284 128.093 194.431 127.4 194.431 126.6V121.16ZM210.742 108.12V128C210.742 128.987 210.995 129.707 211.502 130.16C212.035 130.613 212.742 130.84 213.622 130.84C214.342 130.84 214.969 130.733 215.502 130.52C216.035 130.28 216.529 129.96 216.982 129.56L217.942 132.68C217.329 133.213 216.569 133.64 215.662 133.96C214.782 134.253 213.795 134.4 212.702 134.4C211.555 134.4 210.502 134.213 209.542 133.84C208.582 133.467 207.835 132.867 207.302 132.04C206.769 131.187 206.489 130.08 206.462 128.72V109.32L210.742 108.12ZM217.622 114V117.36H202.622V114H217.622ZM224.015 110.64C223.082 110.64 222.362 110.413 221.855 109.96C221.375 109.48 221.135 108.813 221.135 107.96C221.135 107.107 221.375 106.453 221.855 106C222.362 105.547 223.082 105.32 224.015 105.32C224.922 105.32 225.615 105.547 226.095 106C226.602 106.453 226.855 107.107 226.855 107.96C226.855 108.813 226.602 109.48 226.095 109.96C225.615 110.413 224.922 110.64 224.015 110.64ZM226.135 114V134H221.855V114H226.135ZM241.512 113.6C243.458 113.6 245.178 114.013 246.672 114.84C248.165 115.667 249.325 116.867 250.152 118.44C251.005 119.987 251.432 121.84 251.432 124C251.432 126.16 251.005 128.027 250.152 129.6C249.325 131.147 248.165 132.333 246.672 133.16C245.178 133.987 243.458 134.4 241.512 134.4C239.565 134.4 237.845 133.987 236.352 133.16C234.858 132.333 233.685 131.147 232.832 129.6C231.978 128.027 231.552 126.16 231.552 124C231.552 121.84 231.978 119.987 232.832 118.44C233.685 116.867 234.858 115.667 236.352 114.84C237.845 114.013 239.565 113.6 241.512 113.6ZM241.512 116.96C240.312 116.96 239.285 117.24 238.432 117.8C237.605 118.333 236.965 119.12 236.512 120.16C236.058 121.2 235.832 122.48 235.832 124C235.832 125.493 236.058 126.773 236.512 127.84C236.965 128.88 237.605 129.68 238.432 130.24C239.285 130.773 240.312 131.04 241.512 131.04C242.712 131.04 243.725 130.773 244.552 130.24C245.378 129.68 246.018 128.88 246.472 127.84C246.925 126.773 247.152 125.493 247.152 124C247.152 122.48 246.925 121.2 246.472 120.16C246.018 119.12 245.378 118.333 244.552 117.8C243.725 117.24 242.712 116.96 241.512 116.96ZM256.816 134V114H260.616L260.896 119.2L260.336 118.64C260.709 117.493 261.243 116.547 261.936 115.8C262.656 115.027 263.496 114.467 264.456 114.12C265.443 113.773 266.483 113.6 267.576 113.6C268.989 113.6 270.256 113.88 271.376 114.44C272.523 114.973 273.429 115.787 274.096 116.88C274.763 117.973 275.096 119.36 275.096 121.04V134H270.816V122.36C270.816 120.387 270.403 119.027 269.576 118.28C268.776 117.507 267.763 117.12 266.536 117.12C265.656 117.12 264.803 117.333 263.976 117.76C263.149 118.16 262.456 118.813 261.896 119.72C261.363 120.627 261.096 121.84 261.096 123.36V134H256.816ZM293.142 121.16C293.142 119.827 292.768 118.8 292.022 118.08C291.302 117.333 290.302 116.96 289.022 116.96C287.822 116.96 286.795 117.24 285.942 117.8C285.088 118.36 284.462 119.267 284.062 120.52L280.462 119C280.968 117.373 281.955 116.067 283.422 115.08C284.915 114.093 286.835 113.6 289.182 113.6C290.782 113.6 292.195 113.867 293.422 114.4C294.648 114.907 295.608 115.68 296.302 116.72C297.022 117.76 297.382 119.093 297.382 120.72V129.64C297.382 130.627 297.875 131.12 298.862 131.12C299.342 131.12 299.808 131.053 300.262 130.92L300.022 133.88C299.408 134.173 298.635 134.32 297.702 134.32C296.848 134.32 296.075 134.173 295.382 133.88C294.715 133.56 294.182 133.093 293.782 132.48C293.408 131.84 293.222 131.053 293.222 130.12V129.84L294.102 129.8C293.862 130.84 293.368 131.707 292.622 132.4C291.875 133.067 291.008 133.573 290.022 133.92C289.035 134.24 288.035 134.4 287.022 134.4C285.768 134.4 284.635 134.2 283.622 133.8C282.635 133.4 281.848 132.8 281.262 132C280.702 131.173 280.422 130.16 280.422 128.96C280.422 127.467 280.902 126.24 281.862 125.28C282.848 124.32 284.235 123.667 286.022 123.32L293.782 121.8L293.742 124.8L288.102 125.96C286.982 126.173 286.142 126.48 285.582 126.88C285.022 127.28 284.742 127.867 284.742 128.64C284.742 129.387 285.022 129.987 285.582 130.44C286.168 130.867 286.942 131.08 287.902 131.08C288.568 131.08 289.208 131 289.822 130.84C290.462 130.68 291.035 130.427 291.542 130.08C292.048 129.707 292.435 129.24 292.702 128.68C292.995 128.093 293.142 127.4 293.142 126.6V121.16ZM308.554 105V128.4C308.554 129.387 308.728 130.067 309.074 130.44C309.421 130.813 309.994 131 310.794 131C311.274 131 311.674 130.973 311.994 130.92C312.341 130.84 312.768 130.707 313.274 130.52L312.794 133.72C312.341 133.933 311.821 134.093 311.234 134.2C310.648 134.333 310.061 134.4 309.474 134.4C307.688 134.4 306.368 133.947 305.514 133.04C304.688 132.107 304.274 130.68 304.274 128.76V105H308.554ZM38.1552 182.4C36.1552 182.4 34.3952 181.987 32.8752 181.16C31.3552 180.333 30.1685 179.147 29.3152 177.6C28.4885 176.027 28.0752 174.16 28.0752 172C28.0752 169.84 28.4885 167.987 29.3152 166.44C30.1685 164.867 31.3418 163.667 32.8352 162.84C34.3285 162.013 36.0218 161.6 37.9152 161.6C39.8618 161.6 41.5152 162 42.8752 162.8C44.2352 163.6 45.2752 164.693 45.9952 166.08C46.7152 167.467 47.0752 169.04 47.0752 170.8C47.0752 171.28 47.0618 171.733 47.0352 172.16C47.0085 172.587 46.9685 172.96 46.9152 173.28H30.8352V170H45.0352L42.9152 170.64C42.9152 168.827 42.4618 167.44 41.5552 166.48C40.6485 165.493 39.4085 165 37.8352 165C36.6885 165 35.6885 165.267 34.8352 165.8C33.9818 166.333 33.3285 167.133 32.8752 168.2C32.4218 169.24 32.1952 170.52 32.1952 172.04C32.1952 173.533 32.4352 174.8 32.9152 175.84C33.3952 176.88 34.0752 177.667 34.9552 178.2C35.8352 178.733 36.8752 179 38.0752 179C39.4085 179 40.4885 178.747 41.3152 178.24C42.1418 177.733 42.7952 177.027 43.2752 176.12L46.6752 177.72C46.1952 178.68 45.5418 179.52 44.7152 180.24C43.9152 180.933 42.9552 181.467 41.8352 181.84C40.7152 182.213 39.4885 182.4 38.1552 182.4ZM60.1602 182.4C58.5068 182.4 57.0002 181.987 55.6402 181.16C54.3068 180.333 53.2535 179.147 52.4802 177.6C51.7068 176.053 51.3202 174.2 51.3202 172.04C51.3202 169.8 51.7335 167.907 52.5602 166.36C53.3868 164.813 54.4935 163.64 55.8802 162.84C57.2668 162.013 58.7868 161.6 60.4402 161.6C62.1468 161.6 63.5868 162.067 64.7602 163C65.9335 163.933 66.7202 165.147 67.1202 166.64L66.6402 167.08V153H70.9202V182H67.1202L66.8002 176.56L67.3602 176.6C67.1735 177.8 66.7335 178.84 66.0402 179.72C65.3468 180.573 64.4802 181.24 63.4402 181.72C62.4268 182.173 61.3335 182.4 60.1602 182.4ZM61.0802 178.96C62.2268 178.96 63.2135 178.667 64.0402 178.08C64.8668 177.493 65.5068 176.667 65.9602 175.6C66.4135 174.533 66.6402 173.253 66.6402 171.76C66.6402 170.373 66.4135 169.187 65.9602 168.2C65.5068 167.187 64.8668 166.413 64.0402 165.88C63.2402 165.347 62.3068 165.08 61.2402 165.08C59.4535 165.08 58.0668 165.693 57.0802 166.92C56.0935 168.147 55.6002 169.84 55.6002 172C55.6002 174.16 56.0802 175.867 57.0402 177.12C58.0002 178.347 59.3468 178.96 61.0802 178.96ZM84.6783 182.4C83.3716 182.4 82.1583 182.16 81.0383 181.68C79.9449 181.2 79.0649 180.427 78.3983 179.36C77.7316 178.293 77.3983 176.907 77.3983 175.2V162H81.6783V174.12C81.6783 175.933 82.0649 177.187 82.8383 177.88C83.6116 178.547 84.6916 178.88 86.0783 178.88C86.7449 178.88 87.3849 178.773 87.9983 178.56C88.6383 178.32 89.2116 177.96 89.7183 177.48C90.2249 176.973 90.6116 176.333 90.8783 175.56C91.1716 174.787 91.3183 173.88 91.3183 172.84V162H95.5983V182H91.8383L91.6383 178.76C90.9449 180.013 90.0116 180.933 88.8383 181.52C87.6649 182.107 86.2783 182.4 84.6783 182.4ZM110.925 161.6C112.525 161.6 113.885 161.84 115.005 162.32C116.152 162.773 117.112 163.427 117.885 164.28C118.658 165.133 119.245 166.107 119.645 167.2L115.605 168.8C115.258 167.573 114.698 166.64 113.925 166C113.178 165.333 112.192 165 110.965 165C109.765 165 108.738 165.28 107.885 165.84C107.032 166.373 106.378 167.16 105.925 168.2C105.498 169.24 105.285 170.52 105.285 172.04C105.285 173.533 105.512 174.8 105.965 175.84C106.418 176.88 107.072 177.667 107.925 178.2C108.778 178.733 109.792 179 110.965 179C111.872 179 112.658 178.853 113.325 178.56C113.992 178.24 114.538 177.8 114.965 177.24C115.418 176.653 115.725 175.947 115.885 175.12L119.765 176.44C119.392 177.64 118.805 178.693 118.005 179.6C117.232 180.48 116.258 181.173 115.085 181.68C113.912 182.16 112.565 182.4 111.045 182.4C109.072 182.4 107.325 181.987 105.805 181.16C104.285 180.333 103.098 179.147 102.245 177.6C101.418 176.027 101.005 174.16 101.005 172C101.005 169.84 101.418 167.987 102.245 166.44C103.098 164.867 104.272 163.667 105.765 162.84C107.285 162.013 109.005 161.6 110.925 161.6ZM136.306 169.16C136.306 167.827 135.932 166.8 135.186 166.08C134.466 165.333 133.466 164.96 132.186 164.96C130.986 164.96 129.959 165.24 129.106 165.8C128.252 166.36 127.626 167.267 127.226 168.52L123.626 167C124.132 165.373 125.119 164.067 126.586 163.08C128.079 162.093 129.999 161.6 132.346 161.6C133.946 161.6 135.359 161.867 136.586 162.4C137.812 162.907 138.772 163.68 139.466 164.72C140.186 165.76 140.546 167.093 140.546 168.72V177.64C140.546 178.627 141.039 179.12 142.026 179.12C142.506 179.12 142.972 179.053 143.426 178.92L143.186 181.88C142.572 182.173 141.799 182.32 140.866 182.32C140.012 182.32 139.239 182.173 138.546 181.88C137.879 181.56 137.346 181.093 136.946 180.48C136.572 179.84 136.386 179.053 136.386 178.12V177.84L137.266 177.8C137.026 178.84 136.532 179.707 135.786 180.4C135.039 181.067 134.172 181.573 133.186 181.92C132.199 182.24 131.199 182.4 130.186 182.4C128.932 182.4 127.799 182.2 126.786 181.8C125.799 181.4 125.012 180.8 124.426 180C123.866 179.173 123.586 178.16 123.586 176.96C123.586 175.467 124.066 174.24 125.026 173.28C126.012 172.32 127.399 171.667 129.186 171.32L136.946 169.8L136.906 172.8L131.266 173.96C130.146 174.173 129.306 174.48 128.746 174.88C128.186 175.28 127.906 175.867 127.906 176.64C127.906 177.387 128.186 177.987 128.746 178.44C129.332 178.867 130.106 179.08 131.066 179.08C131.732 179.08 132.372 179 132.986 178.84C133.626 178.68 134.199 178.427 134.706 178.08C135.212 177.707 135.599 177.24 135.866 176.68C136.159 176.093 136.306 175.4 136.306 174.6V169.16ZM152.617 156.12V176C152.617 176.987 152.87 177.707 153.377 178.16C153.91 178.613 154.617 178.84 155.497 178.84C156.217 178.84 156.844 178.733 157.377 178.52C157.91 178.28 158.404 177.96 158.857 177.56L159.817 180.68C159.204 181.213 158.444 181.64 157.537 181.96C156.657 182.253 155.67 182.4 154.577 182.4C153.43 182.4 152.377 182.213 151.417 181.84C150.457 181.467 149.71 180.867 149.177 180.04C148.644 179.187 148.364 178.08 148.337 176.72V157.32L152.617 156.12ZM159.497 162V165.36H144.497V162H159.497ZM165.89 158.64C164.957 158.64 164.237 158.413 163.73 157.96C163.25 157.48 163.01 156.813 163.01 155.96C163.01 155.107 163.25 154.453 163.73 154C164.237 153.547 164.957 153.32 165.89 153.32C166.797 153.32 167.49 153.547 167.97 154C168.477 154.453 168.73 155.107 168.73 155.96C168.73 156.813 168.477 157.48 167.97 157.96C167.49 158.413 166.797 158.64 165.89 158.64ZM168.01 162V182H163.73V162H168.01ZM183.387 161.6C185.333 161.6 187.053 162.013 188.547 162.84C190.04 163.667 191.2 164.867 192.027 166.44C192.88 167.987 193.307 169.84 193.307 172C193.307 174.16 192.88 176.027 192.027 177.6C191.2 179.147 190.04 180.333 188.547 181.16C187.053 181.987 185.333 182.4 183.387 182.4C181.44 182.4 179.72 181.987 178.227 181.16C176.733 180.333 175.56 179.147 174.707 177.6C173.853 176.027 173.427 174.16 173.427 172C173.427 169.84 173.853 167.987 174.707 166.44C175.56 164.867 176.733 163.667 178.227 162.84C179.72 162.013 181.44 161.6 183.387 161.6ZM183.387 164.96C182.187 164.96 181.16 165.24 180.307 165.8C179.48 166.333 178.84 167.12 178.387 168.16C177.933 169.2 177.707 170.48 177.707 172C177.707 173.493 177.933 174.773 178.387 175.84C178.84 176.88 179.48 177.68 180.307 178.24C181.16 178.773 182.187 179.04 183.387 179.04C184.587 179.04 185.6 178.773 186.427 178.24C187.253 177.68 187.893 176.88 188.347 175.84C188.8 174.773 189.027 173.493 189.027 172C189.027 170.48 188.8 169.2 188.347 168.16C187.893 167.12 187.253 166.333 186.427 165.8C185.6 165.24 184.587 164.96 183.387 164.96ZM198.691 182V162H202.491L202.771 167.2L202.211 166.64C202.584 165.493 203.118 164.547 203.811 163.8C204.531 163.027 205.371 162.467 206.331 162.12C207.318 161.773 208.358 161.6 209.451 161.6C210.864 161.6 212.131 161.88 213.251 162.44C214.398 162.973 215.304 163.787 215.971 164.88C216.638 165.973 216.971 167.36 216.971 169.04V182H212.691V170.36C212.691 168.387 212.278 167.027 211.451 166.28C210.651 165.507 209.638 165.12 208.411 165.12C207.531 165.12 206.678 165.333 205.851 165.76C205.024 166.16 204.331 166.813 203.771 167.72C203.238 168.627 202.971 169.84 202.971 171.36V182H198.691ZM236.465 190.4V162H240.265L240.585 167.6L240.025 166.92C240.345 165.88 240.838 164.96 241.505 164.16C242.171 163.36 242.998 162.733 243.985 162.28C244.998 161.827 246.105 161.6 247.305 161.6C248.931 161.6 250.411 162.013 251.745 162.84C253.078 163.667 254.131 164.853 254.905 166.4C255.678 167.92 256.065 169.773 256.065 171.96C256.065 174.147 255.665 176.027 254.865 177.6C254.091 179.147 253.025 180.333 251.665 181.16C250.331 181.987 248.838 182.4 247.185 182.4C245.478 182.4 244.025 181.96 242.825 181.08C241.625 180.173 240.771 179.027 240.265 177.64L240.745 176.96V190.4H236.465ZM246.265 178.92C247.998 178.92 249.345 178.307 250.305 177.08C251.291 175.853 251.785 174.16 251.785 172C251.785 169.84 251.305 168.147 250.345 166.92C249.385 165.667 248.051 165.04 246.345 165.04C245.225 165.04 244.238 165.333 243.385 165.92C242.558 166.48 241.905 167.28 241.425 168.32C240.971 169.333 240.745 170.56 240.745 172C240.745 173.413 240.971 174.64 241.425 175.68C241.878 176.72 242.518 177.52 243.345 178.08C244.171 178.64 245.145 178.92 246.265 178.92ZM270.223 161.6C272.169 161.6 273.889 162.013 275.383 162.84C276.876 163.667 278.036 164.867 278.863 166.44C279.716 167.987 280.143 169.84 280.143 172C280.143 174.16 279.716 176.027 278.863 177.6C278.036 179.147 276.876 180.333 275.383 181.16C273.889 181.987 272.169 182.4 270.223 182.4C268.276 182.4 266.556 181.987 265.063 181.16C263.569 180.333 262.396 179.147 261.543 177.6C260.689 176.027 260.263 174.16 260.263 172C260.263 169.84 260.689 167.987 261.543 166.44C262.396 164.867 263.569 163.667 265.063 162.84C266.556 162.013 268.276 161.6 270.223 161.6ZM270.223 164.96C269.023 164.96 267.996 165.24 267.143 165.8C266.316 166.333 265.676 167.12 265.223 168.16C264.769 169.2 264.543 170.48 264.543 172C264.543 173.493 264.769 174.773 265.223 175.84C265.676 176.88 266.316 177.68 267.143 178.24C267.996 178.773 269.023 179.04 270.223 179.04C271.423 179.04 272.436 178.773 273.263 178.24C274.089 177.68 274.729 176.88 275.183 175.84C275.636 174.773 275.863 173.493 275.863 172C275.863 170.48 275.636 169.2 275.183 168.16C274.729 167.12 274.089 166.333 273.263 165.8C272.436 165.24 271.423 164.96 270.223 164.96ZM285.527 182V162H289.167L289.567 165.6C290.1 164.293 290.887 163.307 291.927 162.64C292.994 161.947 294.3 161.6 295.847 161.6C296.247 161.6 296.647 161.64 297.047 161.72C297.447 161.773 297.78 161.867 298.047 162L297.447 165.76C297.154 165.653 296.82 165.573 296.447 165.52C296.1 165.44 295.62 165.4 295.007 165.4C294.18 165.4 293.367 165.627 292.567 166.08C291.767 166.507 291.1 167.16 290.567 168.04C290.06 168.92 289.807 170.04 289.807 171.4V182H285.527ZM306.953 156.12V176C306.953 176.987 307.206 177.707 307.713 178.16C308.246 178.613 308.953 178.84 309.833 178.84C310.553 178.84 311.18 178.733 311.713 178.52C312.246 178.28 312.74 177.96 313.193 177.56L314.153 180.68C313.54 181.213 312.78 181.64 311.873 181.96C310.993 182.253 310.006 182.4 308.913 182.4C307.766 182.4 306.713 182.213 305.753 181.84C304.793 181.467 304.046 180.867 303.513 180.04C302.98 179.187 302.7 178.08 302.673 176.72V157.32L306.953 156.12ZM313.833 162V165.36H298.833V162H313.833ZM329.743 169.16C329.743 167.827 329.37 166.8 328.623 166.08C327.903 165.333 326.903 164.96 325.623 164.96C324.423 164.96 323.397 165.24 322.543 165.8C321.69 166.36 321.063 167.267 320.663 168.52L317.063 167C317.57 165.373 318.557 164.067 320.023 163.08C321.517 162.093 323.437 161.6 325.783 161.6C327.383 161.6 328.797 161.867 330.023 162.4C331.25 162.907 332.21 163.68 332.903 164.72C333.623 165.76 333.983 167.093 333.983 168.72V177.64C333.983 178.627 334.477 179.12 335.463 179.12C335.943 179.12 336.41 179.053 336.863 178.92L336.623 181.88C336.01 182.173 335.237 182.32 334.303 182.32C333.45 182.32 332.677 182.173 331.983 181.88C331.317 181.56 330.783 181.093 330.383 180.48C330.01 179.84 329.823 179.053 329.823 178.12V177.84L330.703 177.8C330.463 178.84 329.97 179.707 329.223 180.4C328.477 181.067 327.61 181.573 326.623 181.92C325.637 182.24 324.637 182.4 323.623 182.4C322.37 182.4 321.237 182.2 320.223 181.8C319.237 181.4 318.45 180.8 317.863 180C317.303 179.173 317.023 178.16 317.023 176.96C317.023 175.467 317.503 174.24 318.463 173.28C319.45 172.32 320.837 171.667 322.623 171.32L330.383 169.8L330.343 172.8L324.703 173.96C323.583 174.173 322.743 174.48 322.183 174.88C321.623 175.28 321.343 175.867 321.343 176.64C321.343 177.387 321.623 177.987 322.183 178.44C322.77 178.867 323.543 179.08 324.503 179.08C325.17 179.08 325.81 179 326.423 178.84C327.063 178.68 327.637 178.427 328.143 178.08C328.65 177.707 329.037 177.24 329.303 176.68C329.597 176.093 329.743 175.4 329.743 174.6V169.16ZM345.156 153V176.4C345.156 177.387 345.329 178.067 345.676 178.44C346.022 178.813 346.596 179 347.396 179C347.876 179 348.276 178.973 348.596 178.92C348.942 178.84 349.369 178.707 349.876 178.52L349.396 181.72C348.942 181.933 348.422 182.093 347.836 182.2C347.249 182.333 346.662 182.4 346.076 182.4C344.289 182.4 342.969 181.947 342.116 181.04C341.289 180.107 340.876 178.68 340.876 176.76V153H345.156ZM97.4905 210H102.13L95.4105 230H90.7305L85.6905 215.16L80.9305 230H76.2505L69.5705 210H74.1705L78.7305 225.8L83.6905 210H87.9705L92.9305 225.8L97.4905 210ZM108.429 206.64C107.496 206.64 106.776 206.413 106.269 205.96C105.789 205.48 105.549 204.813 105.549 203.96C105.549 203.107 105.789 202.453 106.269 202C106.776 201.547 107.496 201.32 108.429 201.32C109.336 201.32 110.029 201.547 110.509 202C111.016 202.453 111.269 203.107 111.269 203.96C111.269 204.813 111.016 205.48 110.509 205.96C110.029 206.413 109.336 206.64 108.429 206.64ZM110.549 210V230H106.269V210H110.549ZM123.086 204.12V224C123.086 224.987 123.339 225.707 123.846 226.16C124.379 226.613 125.086 226.84 125.966 226.84C126.686 226.84 127.312 226.733 127.846 226.52C128.379 226.28 128.872 225.96 129.326 225.56L130.286 228.68C129.672 229.213 128.912 229.64 128.006 229.96C127.126 230.253 126.139 230.4 125.046 230.4C123.899 230.4 122.846 230.213 121.886 229.84C120.926 229.467 120.179 228.867 119.646 228.04C119.112 227.187 118.832 226.08 118.806 224.72V205.32L123.086 204.12ZM129.966 210V213.36H114.966V210H129.966ZM134.355 230V201H138.635V213.2C139.302 211.947 140.195 211.04 141.315 210.48C142.462 209.893 143.728 209.6 145.115 209.6C146.528 209.6 147.795 209.88 148.915 210.44C150.062 210.973 150.968 211.787 151.635 212.88C152.302 213.973 152.635 215.36 152.635 217.04V230H148.355V218.4C148.355 216.427 147.942 215.053 147.115 214.28C146.315 213.507 145.302 213.12 144.075 213.12C143.222 213.12 142.368 213.333 141.515 213.76C140.688 214.16 139.995 214.827 139.435 215.76C138.902 216.667 138.635 217.893 138.635 219.44V230H134.355ZM180.809 209.6C182.755 209.6 184.475 210.013 185.969 210.84C187.462 211.667 188.622 212.867 189.449 214.44C190.302 215.987 190.729 217.84 190.729 220C190.729 222.16 190.302 224.027 189.449 225.6C188.622 227.147 187.462 228.333 185.969 229.16C184.475 229.987 182.755 230.4 180.809 230.4C178.862 230.4 177.142 229.987 175.649 229.16C174.155 228.333 172.982 227.147 172.129 225.6C171.275 224.027 170.849 222.16 170.849 220C170.849 217.84 171.275 215.987 172.129 214.44C172.982 212.867 174.155 211.667 175.649 210.84C177.142 210.013 178.862 209.6 180.809 209.6ZM180.809 212.96C179.609 212.96 178.582 213.24 177.729 213.8C176.902 214.333 176.262 215.12 175.809 216.16C175.355 217.2 175.129 218.48 175.129 220C175.129 221.493 175.355 222.773 175.809 223.84C176.262 224.88 176.902 225.68 177.729 226.24C178.582 226.773 179.609 227.04 180.809 227.04C182.009 227.04 183.022 226.773 183.849 226.24C184.675 225.68 185.315 224.88 185.769 223.84C186.222 222.773 186.449 221.493 186.449 220C186.449 218.48 186.222 217.2 185.769 216.16C185.315 215.12 184.675 214.333 183.849 213.8C183.022 213.24 182.009 212.96 180.809 212.96ZM209.156 210H213.636L205.676 230H200.996L192.996 210H197.676L203.356 226.28L209.156 210ZM225.968 230.4C223.968 230.4 222.208 229.987 220.688 229.16C219.168 228.333 217.981 227.147 217.128 225.6C216.301 224.027 215.888 222.16 215.888 220C215.888 217.84 216.301 215.987 217.128 214.44C217.981 212.867 219.154 211.667 220.648 210.84C222.141 210.013 223.834 209.6 225.728 209.6C227.674 209.6 229.328 210 230.688 210.8C232.048 211.6 233.088 212.693 233.808 214.08C234.528 215.467 234.888 217.04 234.888 218.8C234.888 219.28 234.874 219.733 234.848 220.16C234.821 220.587 234.781 220.96 234.728 221.28H218.648V218H232.848L230.728 218.64C230.728 216.827 230.274 215.44 229.368 214.48C228.461 213.493 227.221 213 225.648 213C224.501 213 223.501 213.267 222.648 213.8C221.794 214.333 221.141 215.133 220.688 216.2C220.234 217.24 220.008 218.52 220.008 220.04C220.008 221.533 220.248 222.8 220.728 223.84C221.208 224.88 221.888 225.667 222.768 226.2C223.648 226.733 224.688 227 225.888 227C227.221 227 228.301 226.747 229.128 226.24C229.954 225.733 230.608 225.027 231.088 224.12L234.488 225.72C234.008 226.68 233.354 227.52 232.528 228.24C231.728 228.933 230.768 229.467 229.648 229.84C228.528 230.213 227.301 230.4 225.968 230.4ZM240.293 230V210H243.933L244.333 213.6C244.866 212.293 245.653 211.307 246.693 210.64C247.759 209.947 249.066 209.6 250.613 209.6C251.013 209.6 251.413 209.64 251.813 209.72C252.213 209.773 252.546 209.867 252.813 210L252.213 213.76C251.919 213.653 251.586 213.573 251.213 213.52C250.866 213.44 250.386 213.4 249.773 213.4C248.946 213.4 248.133 213.627 247.333 214.08C246.533 214.507 245.866 215.16 245.333 216.04C244.826 216.92 244.573 218.04 244.573 219.4V230H240.293ZM273.179 230V211.88C273.179 211.347 273.179 210.8 273.179 210.24C273.205 209.653 273.232 209.04 273.259 208.4C272.352 209.28 271.312 210.04 270.139 210.68C268.992 211.293 267.805 211.733 266.579 212L265.779 208.28C266.339 208.2 266.992 208.013 267.739 207.72C268.485 207.427 269.259 207.053 270.059 206.6C270.859 206.147 271.592 205.667 272.259 205.16C272.925 204.627 273.445 204.107 273.819 203.6H277.419V230H273.179ZM293.712 230.4C290.539 230.4 288.046 229.253 286.232 226.96C284.446 224.64 283.552 221.253 283.552 216.8C283.552 212.347 284.446 208.973 286.232 206.68C288.046 204.36 290.539 203.2 293.712 203.2C296.912 203.2 299.406 204.36 301.192 206.68C303.006 208.973 303.912 212.347 303.912 216.8C303.912 221.253 303.006 224.64 301.192 226.96C299.406 229.253 296.912 230.4 293.712 230.4ZM293.712 226.76C294.992 226.76 296.059 226.4 296.912 225.68C297.792 224.933 298.446 223.827 298.872 222.36C299.326 220.867 299.552 219.013 299.552 216.8C299.552 214.587 299.326 212.747 298.872 211.28C298.446 209.787 297.792 208.68 296.912 207.96C296.059 207.213 294.992 206.84 293.712 206.84C292.432 206.84 291.352 207.213 290.472 207.96C289.619 208.68 288.979 209.787 288.552 211.28C288.126 212.747 287.912 214.587 287.912 216.8C287.912 219.013 288.126 220.867 288.552 222.36C288.979 223.827 289.619 224.933 290.472 225.68C291.352 226.4 292.432 226.76 293.712 226.76ZM130.646 258L121.886 280.36C121.299 281.907 120.659 283.133 119.966 284.04C119.299 284.947 118.526 285.6 117.646 286C116.766 286.4 115.739 286.6 114.566 286.6C113.606 286.6 112.712 286.467 111.886 286.2C111.086 285.96 110.379 285.627 109.766 285.2L110.806 281.88C111.312 282.307 111.846 282.627 112.406 282.84C112.992 283.053 113.619 283.16 114.286 283.16C115.006 283.16 115.646 282.96 116.206 282.56C116.792 282.187 117.312 281.427 117.766 280.28L118.646 278.12L116.526 273.16L110.286 258H115.086L119.526 270.56L120.686 274.32L122.006 270.2L126.206 258H130.646ZM142.979 278.4C140.979 278.4 139.219 277.987 137.699 277.16C136.179 276.333 134.993 275.147 134.139 273.6C133.313 272.027 132.899 270.16 132.899 268C132.899 265.84 133.313 263.987 134.139 262.44C134.993 260.867 136.166 259.667 137.659 258.84C139.153 258.013 140.846 257.6 142.739 257.6C144.686 257.6 146.339 258 147.699 258.8C149.059 259.6 150.099 260.693 150.819 262.08C151.539 263.467 151.899 265.04 151.899 266.8C151.899 267.28 151.886 267.733 151.859 268.16C151.833 268.587 151.793 268.96 151.739 269.28H135.659V266H149.859L147.739 266.64C147.739 264.827 147.286 263.44 146.379 262.48C145.473 261.493 144.233 261 142.659 261C141.513 261 140.513 261.267 139.659 261.8C138.806 262.333 138.153 263.133 137.699 264.2C137.246 265.24 137.019 266.52 137.019 268.04C137.019 269.533 137.259 270.8 137.739 271.84C138.219 272.88 138.899 273.667 139.779 274.2C140.659 274.733 141.699 275 142.899 275C144.233 275 145.313 274.747 146.139 274.24C146.966 273.733 147.619 273.027 148.099 272.12L151.499 273.72C151.019 274.68 150.366 275.52 149.539 276.24C148.739 276.933 147.779 277.467 146.659 277.84C145.539 278.213 144.313 278.4 142.979 278.4ZM168.864 265.16C168.864 263.827 168.491 262.8 167.744 262.08C167.024 261.333 166.024 260.96 164.744 260.96C163.544 260.96 162.518 261.24 161.664 261.8C160.811 262.36 160.184 263.267 159.784 264.52L156.184 263C156.691 261.373 157.678 260.067 159.144 259.08C160.638 258.093 162.558 257.6 164.904 257.6C166.504 257.6 167.918 257.867 169.144 258.4C170.371 258.907 171.331 259.68 172.024 260.72C172.744 261.76 173.104 263.093 173.104 264.72V273.64C173.104 274.627 173.598 275.12 174.584 275.12C175.064 275.12 175.531 275.053 175.984 274.92L175.744 277.88C175.131 278.173 174.358 278.32 173.424 278.32C172.571 278.32 171.798 278.173 171.104 277.88C170.438 277.56 169.904 277.093 169.504 276.48C169.131 275.84 168.944 275.053 168.944 274.12V273.84L169.824 273.8C169.584 274.84 169.091 275.707 168.344 276.4C167.598 277.067 166.731 277.573 165.744 277.92C164.758 278.24 163.758 278.4 162.744 278.4C161.491 278.4 160.358 278.2 159.344 277.8C158.358 277.4 157.571 276.8 156.984 276C156.424 275.173 156.144 274.16 156.144 272.96C156.144 271.467 156.624 270.24 157.584 269.28C158.571 268.32 159.958 267.667 161.744 267.32L169.504 265.8L169.464 268.8L163.824 269.96C162.704 270.173 161.864 270.48 161.304 270.88C160.744 271.28 160.464 271.867 160.464 272.64C160.464 273.387 160.744 273.987 161.304 274.44C161.891 274.867 162.664 275.08 163.624 275.08C164.291 275.08 164.931 275 165.544 274.84C166.184 274.68 166.758 274.427 167.264 274.08C167.771 273.707 168.158 273.24 168.424 272.68C168.718 272.093 168.864 271.4 168.864 270.6V265.16ZM180.117 278V258H183.757L184.157 261.6C184.69 260.293 185.477 259.307 186.517 258.64C187.584 257.947 188.89 257.6 190.437 257.6C190.837 257.6 191.237 257.64 191.637 257.72C192.037 257.773 192.37 257.867 192.637 258L192.037 261.76C191.744 261.653 191.41 261.573 191.037 261.52C190.69 261.44 190.21 261.4 189.597 261.4C188.77 261.4 187.957 261.627 187.157 262.08C186.357 262.507 185.69 263.16 185.157 264.04C184.65 264.92 184.397 266.04 184.397 267.4V278H180.117ZM203.576 278.4C201.576 278.4 199.75 278.013 198.096 277.24C196.443 276.467 195.136 275.373 194.176 273.96L197.136 271.4C197.723 272.493 198.563 273.373 199.656 274.04C200.776 274.68 202.11 275 203.656 275C204.883 275 205.856 274.787 206.576 274.36C207.296 273.933 207.656 273.333 207.656 272.56C207.656 272.053 207.483 271.613 207.136 271.24C206.816 270.84 206.19 270.533 205.256 270.32L201.056 269.44C198.923 269.013 197.403 268.333 196.496 267.4C195.59 266.44 195.136 265.227 195.136 263.76C195.136 262.667 195.456 261.653 196.096 260.72C196.736 259.787 197.67 259.04 198.896 258.48C200.15 257.893 201.643 257.6 203.376 257.6C205.376 257.6 207.083 257.96 208.496 258.68C209.91 259.373 210.99 260.373 211.736 261.68L208.776 264.16C208.27 263.093 207.523 262.307 206.536 261.8C205.55 261.267 204.523 261 203.456 261C202.603 261 201.87 261.107 201.256 261.32C200.643 261.533 200.176 261.827 199.856 262.2C199.536 262.573 199.376 263.013 199.376 263.52C199.376 264.053 199.576 264.52 199.976 264.92C200.376 265.32 201.096 265.627 202.136 265.84L206.696 266.8C208.616 267.173 209.963 267.813 210.736 268.72C211.536 269.6 211.936 270.68 211.936 271.96C211.936 273.24 211.603 274.373 210.936 275.36C210.27 276.32 209.31 277.067 208.056 277.6C206.803 278.133 205.31 278.4 203.576 278.4ZM238.836 257.6C240.783 257.6 242.503 258.013 243.996 258.84C245.489 259.667 246.649 260.867 247.476 262.44C248.329 263.987 248.756 265.84 248.756 268C248.756 270.16 248.329 272.027 247.476 273.6C246.649 275.147 245.489 276.333 243.996 277.16C242.503 277.987 240.783 278.4 238.836 278.4C236.889 278.4 235.169 277.987 233.676 277.16C232.183 276.333 231.009 275.147 230.156 273.6C229.303 272.027 228.876 270.16 228.876 268C228.876 265.84 229.303 263.987 230.156 262.44C231.009 260.867 232.183 259.667 233.676 258.84C235.169 258.013 236.889 257.6 238.836 257.6ZM238.836 260.96C237.636 260.96 236.609 261.24 235.756 261.8C234.929 262.333 234.289 263.12 233.836 264.16C233.383 265.2 233.156 266.48 233.156 268C233.156 269.493 233.383 270.773 233.836 271.84C234.289 272.88 234.929 273.68 235.756 274.24C236.609 274.773 237.636 275.04 238.836 275.04C240.036 275.04 241.049 274.773 241.876 274.24C242.703 273.68 243.343 272.88 243.796 271.84C244.249 270.773 244.476 269.493 244.476 268C244.476 266.48 244.249 265.2 243.796 264.16C243.343 263.12 242.703 262.333 241.876 261.8C241.049 261.24 240.036 260.96 238.836 260.96ZM262.347 248.72C263.174 248.72 263.92 248.813 264.587 249C265.28 249.16 265.8 249.387 266.147 249.68L265.347 252.76C265.054 252.573 264.72 252.44 264.347 252.36C263.974 252.253 263.547 252.2 263.067 252.2C261.974 252.2 261.107 252.453 260.467 252.96C259.854 253.467 259.547 254.293 259.547 255.44V258.36L259.667 259.44V278H255.387V255.12C255.387 254.107 255.534 253.2 255.827 252.4C256.147 251.6 256.614 250.933 257.227 250.4C257.84 249.84 258.574 249.427 259.427 249.16C260.307 248.867 261.28 248.72 262.347 248.72ZM266.027 258V261.36H251.627V258H266.027ZM92.8622 326.4C90.8622 326.4 89.1022 325.987 87.5822 325.16C86.0622 324.333 84.8755 323.147 84.0222 321.6C83.1955 320.027 82.7822 318.16 82.7822 316C82.7822 313.84 83.1955 311.987 84.0222 310.44C84.8755 308.867 86.0489 307.667 87.5422 306.84C89.0355 306.013 90.7289 305.6 92.6222 305.6C94.5689 305.6 96.2222 306 97.5822 306.8C98.9422 307.6 99.9822 308.693 100.702 310.08C101.422 311.467 101.782 313.04 101.782 314.8C101.782 315.28 101.769 315.733 101.742 316.16C101.716 316.587 101.676 316.96 101.622 317.28H85.5422V314H99.7422L97.6222 314.64C97.6222 312.827 97.1689 311.44 96.2622 310.48C95.3555 309.493 94.1155 309 92.5422 309C91.3955 309 90.3955 309.267 89.5422 309.8C88.6889 310.333 88.0355 311.133 87.5822 312.2C87.1289 313.24 86.9022 314.52 86.9022 316.04C86.9022 317.533 87.1422 318.8 87.6222 319.84C88.1022 320.88 88.7822 321.667 89.6622 322.2C90.5422 322.733 91.5822 323 92.7822 323C94.1155 323 95.1955 322.747 96.0222 322.24C96.8489 321.733 97.5022 321.027 97.9822 320.12L101.382 321.72C100.902 322.68 100.249 323.52 99.4222 324.24C98.6222 324.933 97.6622 325.467 96.5422 325.84C95.4222 326.213 94.1955 326.4 92.8622 326.4ZM109.487 306L115.127 314.56L115.927 314.68L124.047 326H118.967L113.087 317.2L112.167 316.88L104.327 306H109.487ZM123.927 306L116.087 316.72L115.207 316.68L108.807 326H103.927L112.447 314.6L113.287 314.68L119.007 306H123.927ZM128.359 334.4V306H132.159L132.479 311.6L131.919 310.92C132.239 309.88 132.732 308.96 133.399 308.16C134.066 307.36 134.892 306.733 135.879 306.28C136.892 305.827 137.999 305.6 139.199 305.6C140.826 305.6 142.306 306.013 143.639 306.84C144.972 307.667 146.026 308.853 146.799 310.4C147.572 311.92 147.959 313.773 147.959 315.96C147.959 318.147 147.559 320.027 146.759 321.6C145.986 323.147 144.919 324.333 143.559 325.16C142.226 325.987 140.732 326.4 139.079 326.4C137.372 326.4 135.919 325.96 134.719 325.08C133.519 324.173 132.666 323.027 132.159 321.64L132.639 320.96V334.4H128.359ZM138.159 322.92C139.892 322.92 141.239 322.307 142.199 321.08C143.186 319.853 143.679 318.16 143.679 316C143.679 313.84 143.199 312.147 142.239 310.92C141.279 309.667 139.946 309.04 138.239 309.04C137.119 309.04 136.132 309.333 135.279 309.92C134.452 310.48 133.799 311.28 133.319 312.32C132.866 313.333 132.639 314.56 132.639 316C132.639 317.413 132.866 318.64 133.319 319.68C133.772 320.72 134.412 321.52 135.239 322.08C136.066 322.64 137.039 322.92 138.159 322.92ZM162.237 326.4C160.237 326.4 158.477 325.987 156.957 325.16C155.437 324.333 154.251 323.147 153.397 321.6C152.571 320.027 152.157 318.16 152.157 316C152.157 313.84 152.571 311.987 153.397 310.44C154.251 308.867 155.424 307.667 156.917 306.84C158.411 306.013 160.104 305.6 161.997 305.6C163.944 305.6 165.597 306 166.957 306.8C168.317 307.6 169.357 308.693 170.077 310.08C170.797 311.467 171.157 313.04 171.157 314.8C171.157 315.28 171.144 315.733 171.117 316.16C171.091 316.587 171.051 316.96 170.997 317.28H154.917V314H169.117L166.997 314.64C166.997 312.827 166.544 311.44 165.637 310.48C164.731 309.493 163.491 309 161.917 309C160.771 309 159.771 309.267 158.917 309.8C158.064 310.333 157.411 311.133 156.957 312.2C156.504 313.24 156.277 314.52 156.277 316.04C156.277 317.533 156.517 318.8 156.997 319.84C157.477 320.88 158.157 321.667 159.037 322.2C159.917 322.733 160.957 323 162.157 323C163.491 323 164.571 322.747 165.397 322.24C166.224 321.733 166.877 321.027 167.357 320.12L170.757 321.72C170.277 322.68 169.624 323.52 168.797 324.24C167.997 324.933 167.037 325.467 165.917 325.84C164.797 326.213 163.571 326.4 162.237 326.4ZM176.562 326V306H180.202L180.602 309.6C181.136 308.293 181.922 307.307 182.962 306.64C184.029 305.947 185.336 305.6 186.882 305.6C187.282 305.6 187.682 305.64 188.082 305.72C188.482 305.773 188.816 305.867 189.082 306L188.482 309.76C188.189 309.653 187.856 309.573 187.482 309.52C187.136 309.44 186.656 309.4 186.042 309.4C185.216 309.4 184.402 309.627 183.602 310.08C182.802 310.507 182.136 311.16 181.602 312.04C181.096 312.92 180.842 314.04 180.842 315.4V326H176.562ZM195.285 302.64C194.351 302.64 193.631 302.413 193.125 301.96C192.645 301.48 192.405 300.813 192.405 299.96C192.405 299.107 192.645 298.453 193.125 298C193.631 297.547 194.351 297.32 195.285 297.32C196.191 297.32 196.885 297.547 197.365 298C197.871 298.453 198.125 299.107 198.125 299.96C198.125 300.813 197.871 301.48 197.365 301.96C196.885 302.413 196.191 302.64 195.285 302.64ZM197.405 306V326H193.125V306H197.405ZM212.901 326.4C210.901 326.4 209.141 325.987 207.621 325.16C206.101 324.333 204.915 323.147 204.061 321.6C203.235 320.027 202.821 318.16 202.821 316C202.821 313.84 203.235 311.987 204.061 310.44C204.915 308.867 206.088 307.667 207.581 306.84C209.075 306.013 210.768 305.6 212.661 305.6C214.608 305.6 216.261 306 217.621 306.8C218.981 307.6 220.021 308.693 220.741 310.08C221.461 311.467 221.821 313.04 221.821 314.8C221.821 315.28 221.808 315.733 221.781 316.16C221.755 316.587 221.715 316.96 221.661 317.28H205.581V314H219.781L217.661 314.64C217.661 312.827 217.208 311.44 216.301 310.48C215.395 309.493 214.155 309 212.581 309C211.435 309 210.435 309.267 209.581 309.8C208.728 310.333 208.075 311.133 207.621 312.2C207.168 313.24 206.941 314.52 206.941 316.04C206.941 317.533 207.181 318.8 207.661 319.84C208.141 320.88 208.821 321.667 209.701 322.2C210.581 322.733 211.621 323 212.821 323C214.155 323 215.235 322.747 216.061 322.24C216.888 321.733 217.541 321.027 218.021 320.12L221.421 321.72C220.941 322.68 220.288 323.52 219.461 324.24C218.661 324.933 217.701 325.467 216.581 325.84C215.461 326.213 214.235 326.4 212.901 326.4ZM227.226 326V306H231.026L231.306 311.2L230.746 310.64C231.12 309.493 231.653 308.547 232.346 307.8C233.066 307.027 233.906 306.467 234.866 306.12C235.853 305.773 236.893 305.6 237.986 305.6C239.4 305.6 240.666 305.88 241.786 306.44C242.933 306.973 243.84 307.787 244.506 308.88C245.173 309.973 245.506 311.36 245.506 313.04V326H241.226V314.36C241.226 312.387 240.813 311.027 239.986 310.28C239.186 309.507 238.173 309.12 236.946 309.12C236.066 309.12 235.213 309.333 234.386 309.76C233.56 310.16 232.866 310.813 232.306 311.72C231.773 312.627 231.506 313.84 231.506 315.36V326H227.226ZM260.632 305.6C262.232 305.6 263.592 305.84 264.712 306.32C265.859 306.773 266.819 307.427 267.592 308.28C268.365 309.133 268.952 310.107 269.352 311.2L265.312 312.8C264.965 311.573 264.405 310.64 263.632 310C262.885 309.333 261.899 309 260.672 309C259.472 309 258.445 309.28 257.592 309.84C256.739 310.373 256.085 311.16 255.632 312.2C255.205 313.24 254.992 314.52 254.992 316.04C254.992 317.533 255.219 318.8 255.672 319.84C256.125 320.88 256.779 321.667 257.632 322.2C258.485 322.733 259.499 323 260.672 323C261.579 323 262.365 322.853 263.032 322.56C263.699 322.24 264.245 321.8 264.672 321.24C265.125 320.653 265.432 319.947 265.592 319.12L269.472 320.44C269.099 321.64 268.512 322.693 267.712 323.6C266.939 324.48 265.965 325.173 264.792 325.68C263.619 326.16 262.272 326.4 260.752 326.4C258.779 326.4 257.032 325.987 255.512 325.16C253.992 324.333 252.805 323.147 251.952 321.6C251.125 320.027 250.712 318.16 250.712 316C250.712 313.84 251.125 311.987 251.952 310.44C252.805 308.867 253.979 307.667 255.472 306.84C256.992 306.013 258.712 305.6 260.632 305.6ZM283.253 326.4C281.253 326.4 279.493 325.987 277.973 325.16C276.453 324.333 275.266 323.147 274.413 321.6C273.586 320.027 273.173 318.16 273.173 316C273.173 313.84 273.586 311.987 274.413 310.44C275.266 308.867 276.439 307.667 277.933 306.84C279.426 306.013 281.119 305.6 283.013 305.6C284.959 305.6 286.613 306 287.973 306.8C289.333 307.6 290.373 308.693 291.093 310.08C291.813 311.467 292.173 313.04 292.173 314.8C292.173 315.28 292.159 315.733 292.133 316.16C292.106 316.587 292.066 316.96 292.013 317.28H275.933V314H290.133L288.013 314.64C288.013 312.827 287.559 311.44 286.653 310.48C285.746 309.493 284.506 309 282.933 309C281.786 309 280.786 309.267 279.933 309.8C279.079 310.333 278.426 311.133 277.973 312.2C277.519 313.24 277.293 314.52 277.293 316.04C277.293 317.533 277.533 318.8 278.013 319.84C278.493 320.88 279.173 321.667 280.053 322.2C280.933 322.733 281.973 323 283.173 323C284.506 323 285.586 322.747 286.413 322.24C287.239 321.733 287.893 321.027 288.373 320.12L291.773 321.72C291.293 322.68 290.639 323.52 289.813 324.24C289.013 324.933 288.053 325.467 286.933 325.84C285.813 326.213 284.586 326.4 283.253 326.4Z" fill="#0F2F64"/>
</svg>
