<svg width="1440" height="415" viewBox="0 0 1440 415" fill="none" xmlns="http://www.w3.org/2000/svg">
<path d="M499.525 126L491.765 99.6H496.285L502.205 122.28L507.965 99.6H512.365L518.165 122.32L524.045 99.6H528.405L520.685 126H515.645L511.445 110.16L510.125 104.08H510.085L508.765 110.16L504.605 126H499.525ZM540.03 126.4C538.03 126.4 536.27 125.987 534.75 125.16C533.23 124.333 532.043 123.147 531.19 121.6C530.363 120.027 529.95 118.16 529.95 116C529.95 113.84 530.363 111.987 531.19 110.44C532.043 108.867 533.217 107.667 534.71 106.84C536.203 106.013 537.897 105.6 539.79 105.6C541.737 105.6 543.39 106 544.75 106.8C546.11 107.6 547.15 108.693 547.87 110.08C548.59 111.467 548.95 113.04 548.95 114.8C548.95 115.28 548.937 115.733 548.91 116.16C548.883 116.587 548.843 116.96 548.79 117.28H532.71V114H546.91L544.79 114.64C544.79 112.827 544.337 111.44 543.43 110.48C542.523 109.493 541.283 109 539.71 109C538.563 109 537.563 109.267 536.71 109.8C535.857 110.333 535.203 111.133 534.75 112.2C534.297 113.24 534.07 114.52 534.07 116.04C534.07 117.533 534.31 118.8 534.79 119.84C535.27 120.88 535.95 121.667 536.83 122.2C537.71 122.733 538.75 123 539.95 123C541.283 123 542.363 122.747 543.19 122.24C544.017 121.733 544.67 121.027 545.15 120.12L548.55 121.72C548.07 122.68 547.417 123.52 546.59 124.24C545.79 124.933 544.83 125.467 543.71 125.84C542.59 126.213 541.363 126.4 540.03 126.4ZM578.923 113.16C578.923 111.827 578.55 110.8 577.803 110.08C577.083 109.333 576.083 108.96 574.803 108.96C573.603 108.96 572.576 109.24 571.723 109.8C570.87 110.36 570.243 111.267 569.843 112.52L566.243 111C566.75 109.373 567.736 108.067 569.203 107.08C570.696 106.093 572.616 105.6 574.963 105.6C576.563 105.6 577.976 105.867 579.203 106.4C580.43 106.907 581.39 107.68 582.083 108.72C582.803 109.76 583.163 111.093 583.163 112.72V121.64C583.163 122.627 583.656 123.12 584.643 123.12C585.123 123.12 585.59 123.053 586.043 122.92L585.803 125.88C585.19 126.173 584.416 126.32 583.483 126.32C582.63 126.32 581.856 126.173 581.163 125.88C580.496 125.56 579.963 125.093 579.563 124.48C579.19 123.84 579.003 123.053 579.003 122.12V121.84L579.883 121.8C579.643 122.84 579.15 123.707 578.403 124.4C577.656 125.067 576.79 125.573 575.803 125.92C574.816 126.24 573.816 126.4 572.803 126.4C571.55 126.4 570.416 126.2 569.403 125.8C568.416 125.4 567.63 124.8 567.043 124C566.483 123.173 566.203 122.16 566.203 120.96C566.203 119.467 566.683 118.24 567.643 117.28C568.63 116.32 570.016 115.667 571.803 115.32L579.563 113.8L579.523 116.8L573.883 117.96C572.763 118.173 571.923 118.48 571.363 118.88C570.803 119.28 570.523 119.867 570.523 120.64C570.523 121.387 570.803 121.987 571.363 122.44C571.95 122.867 572.723 123.08 573.683 123.08C574.35 123.08 574.99 123 575.603 122.84C576.243 122.68 576.816 122.427 577.323 122.08C577.83 121.707 578.216 121.24 578.483 120.68C578.776 120.093 578.923 119.4 578.923 118.6V113.16ZM590.175 126V106H593.815L594.215 109.6C594.749 108.293 595.535 107.307 596.575 106.64C597.642 105.947 598.949 105.6 600.495 105.6C600.895 105.6 601.295 105.64 601.695 105.72C602.095 105.773 602.429 105.867 602.695 106L602.095 109.76C601.802 109.653 601.469 109.573 601.095 109.52C600.749 109.44 600.269 109.4 599.655 109.4C598.829 109.4 598.015 109.627 597.215 110.08C596.415 110.507 595.749 111.16 595.215 112.04C594.709 112.92 594.455 114.04 594.455 115.4V126H590.175ZM615.03 126.4C613.03 126.4 611.27 125.987 609.75 125.16C608.23 124.333 607.043 123.147 606.19 121.6C605.363 120.027 604.95 118.16 604.95 116C604.95 113.84 605.363 111.987 606.19 110.44C607.043 108.867 608.217 107.667 609.71 106.84C611.203 106.013 612.897 105.6 614.79 105.6C616.737 105.6 618.39 106 619.75 106.8C621.11 107.6 622.15 108.693 622.87 110.08C623.59 111.467 623.95 113.04 623.95 114.8C623.95 115.28 623.937 115.733 623.91 116.16C623.883 116.587 623.843 116.96 623.79 117.28H607.71V114H621.91L619.79 114.64C619.79 112.827 619.337 111.44 618.43 110.48C617.523 109.493 616.283 109 614.71 109C613.563 109 612.563 109.267 611.71 109.8C610.857 110.333 610.203 111.133 609.75 112.2C609.297 113.24 609.07 114.52 609.07 116.04C609.07 117.533 609.31 118.8 609.79 119.84C610.27 120.88 610.95 121.667 611.83 122.2C612.71 122.733 613.75 123 614.95 123C616.283 123 617.363 122.747 618.19 122.24C619.017 121.733 619.67 121.027 620.15 120.12L623.55 121.72C623.07 122.68 622.417 123.52 621.59 124.24C620.79 124.933 619.83 125.467 618.71 125.84C617.59 126.213 616.363 126.4 615.03 126.4ZM653.923 113.16C653.923 111.827 653.55 110.8 652.803 110.08C652.083 109.333 651.083 108.96 649.803 108.96C648.603 108.96 647.576 109.24 646.723 109.8C645.87 110.36 645.243 111.267 644.843 112.52L641.243 111C641.75 109.373 642.736 108.067 644.203 107.08C645.696 106.093 647.616 105.6 649.963 105.6C651.563 105.6 652.976 105.867 654.203 106.4C655.43 106.907 656.39 107.68 657.083 108.72C657.803 109.76 658.163 111.093 658.163 112.72V121.64C658.163 122.627 658.656 123.12 659.643 123.12C660.123 123.12 660.59 123.053 661.043 122.92L660.803 125.88C660.19 126.173 659.416 126.32 658.483 126.32C657.63 126.32 656.856 126.173 656.163 125.88C655.496 125.56 654.963 125.093 654.563 124.48C654.19 123.84 654.003 123.053 654.003 122.12V121.84L654.883 121.8C654.643 122.84 654.15 123.707 653.403 124.4C652.656 125.067 651.79 125.573 650.803 125.92C649.816 126.24 648.816 126.4 647.803 126.4C646.55 126.4 645.416 126.2 644.403 125.8C643.416 125.4 642.63 124.8 642.043 124C641.483 123.173 641.203 122.16 641.203 120.96C641.203 119.467 641.683 118.24 642.643 117.28C643.63 116.32 645.016 115.667 646.803 115.32L654.563 113.8L654.523 116.8L648.883 117.96C647.763 118.173 646.923 118.48 646.363 118.88C645.803 119.28 645.523 119.867 645.523 120.64C645.523 121.387 645.803 121.987 646.363 122.44C646.95 122.867 647.723 123.08 648.683 123.08C649.35 123.08 649.99 123 650.603 122.84C651.243 122.68 651.816 122.427 652.323 122.08C652.83 121.707 653.216 121.24 653.483 120.68C653.776 120.093 653.923 119.4 653.923 118.6V113.16ZM665.175 126V106H668.975L669.255 111.2L668.695 110.64C669.069 109.493 669.602 108.547 670.295 107.8C671.015 107.027 671.855 106.467 672.815 106.12C673.802 105.773 674.842 105.6 675.935 105.6C677.349 105.6 678.615 105.88 679.735 106.44C680.882 106.973 681.789 107.787 682.455 108.88C683.122 109.973 683.455 111.36 683.455 113.04V126H679.175V114.36C679.175 112.387 678.762 111.027 677.935 110.28C677.135 109.507 676.122 109.12 674.895 109.12C674.015 109.12 673.162 109.333 672.335 109.76C671.509 110.16 670.815 110.813 670.255 111.72C669.722 112.627 669.455 113.84 669.455 115.36V126H665.175ZM705.109 102.64C704.176 102.64 703.456 102.413 702.949 101.96C702.469 101.48 702.229 100.813 702.229 99.96C702.229 99.1067 702.469 98.4533 702.949 98C703.456 97.5467 704.176 97.32 705.109 97.32C706.016 97.32 706.709 97.5467 707.189 98C707.696 98.4533 707.949 99.1067 707.949 99.96C707.949 100.813 707.696 101.48 707.189 101.96C706.709 102.413 706.016 102.64 705.109 102.64ZM707.229 106V126H702.949V106H707.229ZM713.925 126V106H717.725L718.005 111.2L717.445 110.64C717.819 109.493 718.352 108.547 719.045 107.8C719.765 107.027 720.605 106.467 721.565 106.12C722.552 105.773 723.592 105.6 724.685 105.6C726.099 105.6 727.365 105.88 728.485 106.44C729.632 106.973 730.539 107.787 731.205 108.88C731.872 109.973 732.205 111.36 732.205 113.04V126H727.925V114.36C727.925 112.387 727.512 111.027 726.685 110.28C725.885 109.507 724.872 109.12 723.645 109.12C722.765 109.12 721.912 109.333 721.085 109.76C720.259 110.16 719.565 110.813 719.005 111.72C718.472 112.627 718.205 113.84 718.205 115.36V126H713.925ZM744.297 100.12V120C744.297 120.987 744.55 121.707 745.057 122.16C745.59 122.613 746.297 122.84 747.177 122.84C747.897 122.84 748.523 122.733 749.057 122.52C749.59 122.28 750.083 121.96 750.537 121.56L751.497 124.68C750.883 125.213 750.123 125.64 749.217 125.96C748.337 126.253 747.35 126.4 746.257 126.4C745.11 126.4 744.057 126.213 743.097 125.84C742.137 125.467 741.39 124.867 740.857 124.04C740.323 123.187 740.043 122.08 740.017 120.72V101.32L744.297 100.12ZM751.177 106V109.36H736.177V106H751.177ZM764.21 126.4C762.21 126.4 760.45 125.987 758.93 125.16C757.41 124.333 756.223 123.147 755.37 121.6C754.543 120.027 754.13 118.16 754.13 116C754.13 113.84 754.543 111.987 755.37 110.44C756.223 108.867 757.397 107.667 758.89 106.84C760.383 106.013 762.077 105.6 763.97 105.6C765.917 105.6 767.57 106 768.93 106.8C770.29 107.6 771.33 108.693 772.05 110.08C772.77 111.467 773.13 113.04 773.13 114.8C773.13 115.28 773.117 115.733 773.09 116.16C773.063 116.587 773.023 116.96 772.97 117.28H756.89V114H771.09L768.97 114.64C768.97 112.827 768.517 111.44 767.61 110.48C766.703 109.493 765.463 109 763.89 109C762.743 109 761.743 109.267 760.89 109.8C760.037 110.333 759.383 111.133 758.93 112.2C758.477 113.24 758.25 114.52 758.25 116.04C758.25 117.533 758.49 118.8 758.97 119.84C759.45 120.88 760.13 121.667 761.01 122.2C761.89 122.733 762.93 123 764.13 123C765.463 123 766.543 122.747 767.37 122.24C768.197 121.733 768.85 121.027 769.33 120.12L772.73 121.72C772.25 122.68 771.597 123.52 770.77 124.24C769.97 124.933 769.01 125.467 767.89 125.84C766.77 126.213 765.543 126.4 764.21 126.4ZM778.535 126V106H782.175L782.575 109.6C783.108 108.293 783.895 107.307 784.935 106.64C786.002 105.947 787.308 105.6 788.855 105.6C789.255 105.6 789.655 105.64 790.055 105.72C790.455 105.773 790.788 105.867 791.055 106L790.455 109.76C790.162 109.653 789.828 109.573 789.455 109.52C789.108 109.44 788.628 109.4 788.015 109.4C787.188 109.4 786.375 109.627 785.575 110.08C784.775 110.507 784.108 111.16 783.575 112.04C783.068 112.92 782.815 114.04 782.815 115.4V126H778.535ZM795.097 126V106H798.897L799.177 111.2L798.617 110.64C798.991 109.493 799.524 108.547 800.217 107.8C800.937 107.027 801.777 106.467 802.737 106.12C803.724 105.773 804.764 105.6 805.857 105.6C807.271 105.6 808.537 105.88 809.657 106.44C810.804 106.973 811.711 107.787 812.377 108.88C813.044 109.973 813.377 111.36 813.377 113.04V126H809.097V114.36C809.097 112.387 808.684 111.027 807.857 110.28C807.057 109.507 806.044 109.12 804.817 109.12C803.937 109.12 803.084 109.333 802.257 109.76C801.431 110.16 800.737 110.813 800.177 111.72C799.644 112.627 799.377 113.84 799.377 115.36V126H795.097ZM831.423 113.16C831.423 111.827 831.05 110.8 830.303 110.08C829.583 109.333 828.583 108.96 827.303 108.96C826.103 108.96 825.076 109.24 824.223 109.8C823.37 110.36 822.743 111.267 822.343 112.52L818.743 111C819.25 109.373 820.236 108.067 821.703 107.08C823.196 106.093 825.116 105.6 827.463 105.6C829.063 105.6 830.476 105.867 831.703 106.4C832.93 106.907 833.89 107.68 834.583 108.72C835.303 109.76 835.663 111.093 835.663 112.72V121.64C835.663 122.627 836.156 123.12 837.143 123.12C837.623 123.12 838.09 123.053 838.543 122.92L838.303 125.88C837.69 126.173 836.916 126.32 835.983 126.32C835.13 126.32 834.356 126.173 833.663 125.88C832.996 125.56 832.463 125.093 832.063 124.48C831.69 123.84 831.503 123.053 831.503 122.12V121.84L832.383 121.8C832.143 122.84 831.65 123.707 830.903 124.4C830.156 125.067 829.29 125.573 828.303 125.92C827.316 126.24 826.316 126.4 825.303 126.4C824.05 126.4 822.916 126.2 821.903 125.8C820.916 125.4 820.13 124.8 819.543 124C818.983 123.173 818.703 122.16 818.703 120.96C818.703 119.467 819.183 118.24 820.143 117.28C821.13 116.32 822.516 115.667 824.303 115.32L832.063 113.8L832.023 116.8L826.383 117.96C825.263 118.173 824.423 118.48 823.863 118.88C823.303 119.28 823.023 119.867 823.023 120.64C823.023 121.387 823.303 121.987 823.863 122.44C824.45 122.867 825.223 123.08 826.183 123.08C826.85 123.08 827.49 123 828.103 122.84C828.743 122.68 829.316 122.427 829.823 122.08C830.33 121.707 830.716 121.24 830.983 120.68C831.276 120.093 831.423 119.4 831.423 118.6V113.16ZM847.734 100.12V120C847.734 120.987 847.988 121.707 848.494 122.16C849.028 122.613 849.734 122.84 850.614 122.84C851.334 122.84 851.961 122.733 852.494 122.52C853.028 122.28 853.521 121.96 853.974 121.56L854.934 124.68C854.321 125.213 853.561 125.64 852.654 125.96C851.774 126.253 850.788 126.4 849.694 126.4C848.548 126.4 847.494 126.213 846.534 125.84C845.574 125.467 844.828 124.867 844.294 124.04C843.761 123.187 843.481 122.08 843.454 120.72V101.32L847.734 100.12ZM854.614 106V109.36H839.614V106H854.614ZM861.007 102.64C860.074 102.64 859.354 102.413 858.847 101.96C858.367 101.48 858.127 100.813 858.127 99.96C858.127 99.1067 858.367 98.4533 858.847 98C859.354 97.5467 860.074 97.32 861.007 97.32C861.914 97.32 862.607 97.5467 863.087 98C863.594 98.4533 863.847 99.1067 863.847 99.96C863.847 100.813 863.594 101.48 863.087 101.96C862.607 102.413 861.914 102.64 861.007 102.64ZM863.127 106V126H858.847V106H863.127ZM878.504 105.6C880.451 105.6 882.171 106.013 883.664 106.84C885.157 107.667 886.317 108.867 887.144 110.44C887.997 111.987 888.424 113.84 888.424 116C888.424 118.16 887.997 120.027 887.144 121.6C886.317 123.147 885.157 124.333 883.664 125.16C882.171 125.987 880.451 126.4 878.504 126.4C876.557 126.4 874.837 125.987 873.344 125.16C871.851 124.333 870.677 123.147 869.824 121.6C868.971 120.027 868.544 118.16 868.544 116C868.544 113.84 868.971 111.987 869.824 110.44C870.677 108.867 871.851 107.667 873.344 106.84C874.837 106.013 876.557 105.6 878.504 105.6ZM878.504 108.96C877.304 108.96 876.277 109.24 875.424 109.8C874.597 110.333 873.957 111.12 873.504 112.16C873.051 113.2 872.824 114.48 872.824 116C872.824 117.493 873.051 118.773 873.504 119.84C873.957 120.88 874.597 121.68 875.424 122.24C876.277 122.773 877.304 123.04 878.504 123.04C879.704 123.04 880.717 122.773 881.544 122.24C882.371 121.68 883.011 120.88 883.464 119.84C883.917 118.773 884.144 117.493 884.144 116C884.144 114.48 883.917 113.2 883.464 112.16C883.011 111.12 882.371 110.333 881.544 109.8C880.717 109.24 879.704 108.96 878.504 108.96ZM893.808 126V106H897.608L897.888 111.2L897.328 110.64C897.702 109.493 898.235 108.547 898.928 107.8C899.648 107.027 900.488 106.467 901.448 106.12C902.435 105.773 903.475 105.6 904.568 105.6C905.982 105.6 907.248 105.88 908.368 106.44C909.515 106.973 910.422 107.787 911.088 108.88C911.755 109.973 912.088 111.36 912.088 113.04V126H907.808V114.36C907.808 112.387 907.395 111.027 906.568 110.28C905.768 109.507 904.755 109.12 903.528 109.12C902.648 109.12 901.795 109.333 900.968 109.76C900.142 110.16 899.448 110.813 898.888 111.72C898.355 112.627 898.088 113.84 898.088 115.36V126H893.808ZM930.134 113.16C930.134 111.827 929.761 110.8 929.014 110.08C928.294 109.333 927.294 108.96 926.014 108.96C924.814 108.96 923.787 109.24 922.934 109.8C922.081 110.36 921.454 111.267 921.054 112.52L917.454 111C917.961 109.373 918.947 108.067 920.414 107.08C921.907 106.093 923.827 105.6 926.174 105.6C927.774 105.6 929.187 105.867 930.414 106.4C931.641 106.907 932.601 107.68 933.294 108.72C934.014 109.76 934.374 111.093 934.374 112.72V121.64C934.374 122.627 934.867 123.12 935.854 123.12C936.334 123.12 936.801 123.053 937.254 122.92L937.014 125.88C936.401 126.173 935.627 126.32 934.694 126.32C933.841 126.32 933.067 126.173 932.374 125.88C931.707 125.56 931.174 125.093 930.774 124.48C930.401 123.84 930.214 123.053 930.214 122.12V121.84L931.094 121.8C930.854 122.84 930.361 123.707 929.614 124.4C928.867 125.067 928.001 125.573 927.014 125.92C926.027 126.24 925.027 126.4 924.014 126.4C922.761 126.4 921.627 126.2 920.614 125.8C919.627 125.4 918.841 124.8 918.254 124C917.694 123.173 917.414 122.16 917.414 120.96C917.414 119.467 917.894 118.24 918.854 117.28C919.841 116.32 921.227 115.667 923.014 115.32L930.774 113.8L930.734 116.8L925.094 117.96C923.974 118.173 923.134 118.48 922.574 118.88C922.014 119.28 921.734 119.867 921.734 120.64C921.734 121.387 922.014 121.987 922.574 122.44C923.161 122.867 923.934 123.08 924.894 123.08C925.561 123.08 926.201 123 926.814 122.84C927.454 122.68 928.027 122.427 928.534 122.08C929.041 121.707 929.427 121.24 929.694 120.68C929.987 120.093 930.134 119.4 930.134 118.6V113.16ZM945.546 97V120.4C945.546 121.387 945.72 122.067 946.066 122.44C946.413 122.813 946.986 123 947.786 123C948.266 123 948.666 122.973 948.986 122.92C949.333 122.84 949.76 122.707 950.266 122.52L949.786 125.72C949.333 125.933 948.813 126.093 948.226 126.2C947.64 126.333 947.053 126.4 946.466 126.4C944.68 126.4 943.36 125.947 942.506 125.04C941.68 124.107 941.266 122.68 941.266 120.76V97H945.546ZM445.831 174.4C443.831 174.4 442.071 173.987 440.551 173.16C439.031 172.333 437.844 171.147 436.991 169.6C436.164 168.027 435.751 166.16 435.751 164C435.751 161.84 436.164 159.987 436.991 158.44C437.844 156.867 439.018 155.667 440.511 154.84C442.004 154.013 443.698 153.6 445.591 153.6C447.538 153.6 449.191 154 450.551 154.8C451.911 155.6 452.951 156.693 453.671 158.08C454.391 159.467 454.751 161.04 454.751 162.8C454.751 163.28 454.738 163.733 454.711 164.16C454.684 164.587 454.644 164.96 454.591 165.28H438.511V162H452.711L450.591 162.64C450.591 160.827 450.138 159.44 449.231 158.48C448.324 157.493 447.084 157 445.511 157C444.364 157 443.364 157.267 442.511 157.8C441.658 158.333 441.004 159.133 440.551 160.2C440.098 161.24 439.871 162.52 439.871 164.04C439.871 165.533 440.111 166.8 440.591 167.84C441.071 168.88 441.751 169.667 442.631 170.2C443.511 170.733 444.551 171 445.751 171C447.084 171 448.164 170.747 448.991 170.24C449.818 169.733 450.471 169.027 450.951 168.12L454.351 169.72C453.871 170.68 453.218 171.52 452.391 172.24C451.591 172.933 450.631 173.467 449.511 173.84C448.391 174.213 447.164 174.4 445.831 174.4ZM467.836 174.4C466.183 174.4 464.676 173.987 463.316 173.16C461.983 172.333 460.929 171.147 460.156 169.6C459.383 168.053 458.996 166.2 458.996 164.04C458.996 161.8 459.409 159.907 460.236 158.36C461.063 156.813 462.169 155.64 463.556 154.84C464.943 154.013 466.463 153.6 468.116 153.6C469.823 153.6 471.263 154.067 472.436 155C473.609 155.933 474.396 157.147 474.796 158.64L474.316 159.08V145H478.596V174H474.796L474.476 168.56L475.036 168.6C474.849 169.8 474.409 170.84 473.716 171.72C473.023 172.573 472.156 173.24 471.116 173.72C470.103 174.173 469.009 174.4 467.836 174.4ZM468.756 170.96C469.903 170.96 470.889 170.667 471.716 170.08C472.543 169.493 473.183 168.667 473.636 167.6C474.089 166.533 474.316 165.253 474.316 163.76C474.316 162.373 474.089 161.187 473.636 160.2C473.183 159.187 472.543 158.413 471.716 157.88C470.916 157.347 469.983 157.08 468.916 157.08C467.129 157.08 465.743 157.693 464.756 158.92C463.769 160.147 463.276 161.84 463.276 164C463.276 166.16 463.756 167.867 464.716 169.12C465.676 170.347 467.023 170.96 468.756 170.96ZM492.354 174.4C491.047 174.4 489.834 174.16 488.714 173.68C487.621 173.2 486.741 172.427 486.074 171.36C485.407 170.293 485.074 168.907 485.074 167.2V154H489.354V166.12C489.354 167.933 489.741 169.187 490.514 169.88C491.287 170.547 492.367 170.88 493.754 170.88C494.421 170.88 495.061 170.773 495.674 170.56C496.314 170.32 496.887 169.96 497.394 169.48C497.901 168.973 498.287 168.333 498.554 167.56C498.847 166.787 498.994 165.88 498.994 164.84V154H503.274V174H499.514L499.314 170.76C498.621 172.013 497.687 172.933 496.514 173.52C495.341 174.107 493.954 174.4 492.354 174.4ZM518.601 153.6C520.201 153.6 521.561 153.84 522.681 154.32C523.827 154.773 524.787 155.427 525.561 156.28C526.334 157.133 526.921 158.107 527.321 159.2L523.281 160.8C522.934 159.573 522.374 158.64 521.601 158C520.854 157.333 519.867 157 518.641 157C517.441 157 516.414 157.28 515.561 157.84C514.707 158.373 514.054 159.16 513.601 160.2C513.174 161.24 512.961 162.52 512.961 164.04C512.961 165.533 513.187 166.8 513.641 167.84C514.094 168.88 514.747 169.667 515.601 170.2C516.454 170.733 517.467 171 518.641 171C519.547 171 520.334 170.853 521.001 170.56C521.667 170.24 522.214 169.8 522.641 169.24C523.094 168.653 523.401 167.947 523.561 167.12L527.441 168.44C527.067 169.64 526.481 170.693 525.681 171.6C524.907 172.48 523.934 173.173 522.761 173.68C521.587 174.16 520.241 174.4 518.721 174.4C516.747 174.4 515.001 173.987 513.481 173.16C511.961 172.333 510.774 171.147 509.921 169.6C509.094 168.027 508.681 166.16 508.681 164C508.681 161.84 509.094 159.987 509.921 158.44C510.774 156.867 511.947 155.667 513.441 154.84C514.961 154.013 516.681 153.6 518.601 153.6ZM543.982 161.16C543.982 159.827 543.608 158.8 542.862 158.08C542.142 157.333 541.142 156.96 539.862 156.96C538.662 156.96 537.635 157.24 536.782 157.8C535.928 158.36 535.302 159.267 534.902 160.52L531.302 159C531.808 157.373 532.795 156.067 534.262 155.08C535.755 154.093 537.675 153.6 540.022 153.6C541.622 153.6 543.035 153.867 544.262 154.4C545.488 154.907 546.448 155.68 547.142 156.72C547.862 157.76 548.222 159.093 548.222 160.72V169.64C548.222 170.627 548.715 171.12 549.702 171.12C550.182 171.12 550.648 171.053 551.102 170.92L550.862 173.88C550.248 174.173 549.475 174.32 548.542 174.32C547.688 174.32 546.915 174.173 546.222 173.88C545.555 173.56 545.022 173.093 544.622 172.48C544.248 171.84 544.062 171.053 544.062 170.12V169.84L544.942 169.8C544.702 170.84 544.208 171.707 543.462 172.4C542.715 173.067 541.848 173.573 540.862 173.92C539.875 174.24 538.875 174.4 537.862 174.4C536.608 174.4 535.475 174.2 534.462 173.8C533.475 173.4 532.688 172.8 532.102 172C531.542 171.173 531.262 170.16 531.262 168.96C531.262 167.467 531.742 166.24 532.702 165.28C533.688 164.32 535.075 163.667 536.862 163.32L544.622 161.8L544.582 164.8L538.942 165.96C537.822 166.173 536.982 166.48 536.422 166.88C535.862 167.28 535.582 167.867 535.582 168.64C535.582 169.387 535.862 169.987 536.422 170.44C537.008 170.867 537.782 171.08 538.742 171.08C539.408 171.08 540.048 171 540.662 170.84C541.302 170.68 541.875 170.427 542.382 170.08C542.888 169.707 543.275 169.24 543.542 168.68C543.835 168.093 543.982 167.4 543.982 166.6V161.16ZM560.293 148.12V168C560.293 168.987 560.546 169.707 561.053 170.16C561.586 170.613 562.293 170.84 563.173 170.84C563.893 170.84 564.519 170.733 565.053 170.52C565.586 170.28 566.079 169.96 566.533 169.56L567.493 172.68C566.879 173.213 566.119 173.64 565.213 173.96C564.333 174.253 563.346 174.4 562.253 174.4C561.106 174.4 560.053 174.213 559.093 173.84C558.133 173.467 557.386 172.867 556.853 172.04C556.319 171.187 556.039 170.08 556.013 168.72V149.32L560.293 148.12ZM567.173 154V157.36H552.173V154H567.173ZM573.566 150.64C572.633 150.64 571.913 150.413 571.406 149.96C570.926 149.48 570.686 148.813 570.686 147.96C570.686 147.107 570.926 146.453 571.406 146C571.913 145.547 572.633 145.32 573.566 145.32C574.473 145.32 575.166 145.547 575.646 146C576.153 146.453 576.406 147.107 576.406 147.96C576.406 148.813 576.153 149.48 575.646 149.96C575.166 150.413 574.473 150.64 573.566 150.64ZM575.686 154V174H571.406V154H575.686ZM591.063 153.6C593.009 153.6 594.729 154.013 596.223 154.84C597.716 155.667 598.876 156.867 599.703 158.44C600.556 159.987 600.983 161.84 600.983 164C600.983 166.16 600.556 168.027 599.703 169.6C598.876 171.147 597.716 172.333 596.223 173.16C594.729 173.987 593.009 174.4 591.063 174.4C589.116 174.4 587.396 173.987 585.903 173.16C584.409 172.333 583.236 171.147 582.383 169.6C581.529 168.027 581.103 166.16 581.103 164C581.103 161.84 581.529 159.987 582.383 158.44C583.236 156.867 584.409 155.667 585.903 154.84C587.396 154.013 589.116 153.6 591.063 153.6ZM591.063 156.96C589.863 156.96 588.836 157.24 587.983 157.8C587.156 158.333 586.516 159.12 586.063 160.16C585.609 161.2 585.383 162.48 585.383 164C585.383 165.493 585.609 166.773 586.063 167.84C586.516 168.88 587.156 169.68 587.983 170.24C588.836 170.773 589.863 171.04 591.063 171.04C592.263 171.04 593.276 170.773 594.103 170.24C594.929 169.68 595.569 168.88 596.023 167.84C596.476 166.773 596.703 165.493 596.703 164C596.703 162.48 596.476 161.2 596.023 160.16C595.569 159.12 594.929 158.333 594.103 157.8C593.276 157.24 592.263 156.96 591.063 156.96ZM606.367 174V154H610.167L610.447 159.2L609.887 158.64C610.26 157.493 610.794 156.547 611.487 155.8C612.207 155.027 613.047 154.467 614.007 154.12C614.994 153.773 616.034 153.6 617.127 153.6C618.54 153.6 619.807 153.88 620.927 154.44C622.074 154.973 622.98 155.787 623.647 156.88C624.314 157.973 624.647 159.36 624.647 161.04V174H620.367V162.36C620.367 160.387 619.954 159.027 619.127 158.28C618.327 157.507 617.314 157.12 616.087 157.12C615.207 157.12 614.354 157.333 613.527 157.76C612.7 158.16 612.007 158.813 611.447 159.72C610.914 160.627 610.647 161.84 610.647 163.36V174H606.367ZM644.14 182.4V154H647.94L648.26 159.6L647.7 158.92C648.02 157.88 648.514 156.96 649.18 156.16C649.847 155.36 650.674 154.733 651.66 154.28C652.674 153.827 653.78 153.6 654.98 153.6C656.607 153.6 658.087 154.013 659.42 154.84C660.754 155.667 661.807 156.853 662.58 158.4C663.354 159.92 663.74 161.773 663.74 163.96C663.74 166.147 663.34 168.027 662.54 169.6C661.767 171.147 660.7 172.333 659.34 173.16C658.007 173.987 656.514 174.4 654.86 174.4C653.154 174.4 651.7 173.96 650.5 173.08C649.3 172.173 648.447 171.027 647.94 169.64L648.42 168.96V182.4H644.14ZM653.94 170.92C655.674 170.92 657.02 170.307 657.98 169.08C658.967 167.853 659.46 166.16 659.46 164C659.46 161.84 658.98 160.147 658.02 158.92C657.06 157.667 655.727 157.04 654.02 157.04C652.9 157.04 651.914 157.333 651.06 157.92C650.234 158.48 649.58 159.28 649.1 160.32C648.647 161.333 648.42 162.56 648.42 164C648.42 165.413 648.647 166.64 649.1 167.68C649.554 168.72 650.194 169.52 651.02 170.08C651.847 170.64 652.82 170.92 653.94 170.92ZM677.898 153.6C679.845 153.6 681.565 154.013 683.058 154.84C684.552 155.667 685.712 156.867 686.538 158.44C687.392 159.987 687.818 161.84 687.818 164C687.818 166.16 687.392 168.027 686.538 169.6C685.712 171.147 684.552 172.333 683.058 173.16C681.565 173.987 679.845 174.4 677.898 174.4C675.952 174.4 674.232 173.987 672.738 173.16C671.245 172.333 670.072 171.147 669.218 169.6C668.365 168.027 667.938 166.16 667.938 164C667.938 161.84 668.365 159.987 669.218 158.44C670.072 156.867 671.245 155.667 672.738 154.84C674.232 154.013 675.952 153.6 677.898 153.6ZM677.898 156.96C676.698 156.96 675.672 157.24 674.818 157.8C673.992 158.333 673.352 159.12 672.898 160.16C672.445 161.2 672.218 162.48 672.218 164C672.218 165.493 672.445 166.773 672.898 167.84C673.352 168.88 673.992 169.68 674.818 170.24C675.672 170.773 676.698 171.04 677.898 171.04C679.098 171.04 680.112 170.773 680.938 170.24C681.765 169.68 682.405 168.88 682.858 167.84C683.312 166.773 683.538 165.493 683.538 164C683.538 162.48 683.312 161.2 682.858 160.16C682.405 159.12 681.765 158.333 680.938 157.8C680.112 157.24 679.098 156.96 677.898 156.96ZM693.203 174V154H696.843L697.243 157.6C697.776 156.293 698.563 155.307 699.603 154.64C700.669 153.947 701.976 153.6 703.523 153.6C703.923 153.6 704.323 153.64 704.723 153.72C705.123 153.773 705.456 153.867 705.723 154L705.123 157.76C704.829 157.653 704.496 157.573 704.123 157.52C703.776 157.44 703.296 157.4 702.683 157.4C701.856 157.4 701.043 157.627 700.243 158.08C699.443 158.507 698.776 159.16 698.243 160.04C697.736 160.92 697.483 162.04 697.483 163.4V174H693.203ZM714.629 148.12V168C714.629 168.987 714.882 169.707 715.389 170.16C715.922 170.613 716.629 170.84 717.509 170.84C718.229 170.84 718.855 170.733 719.389 170.52C719.922 170.28 720.415 169.96 720.869 169.56L721.829 172.68C721.215 173.213 720.455 173.64 719.549 173.96C718.669 174.253 717.682 174.4 716.589 174.4C715.442 174.4 714.389 174.213 713.429 173.84C712.469 173.467 711.722 172.867 711.189 172.04C710.655 171.187 710.375 170.08 710.349 168.72V149.32L714.629 148.12ZM721.509 154V157.36H706.509V154H721.509ZM737.419 161.16C737.419 159.827 737.046 158.8 736.299 158.08C735.579 157.333 734.579 156.96 733.299 156.96C732.099 156.96 731.072 157.24 730.219 157.8C729.366 158.36 728.739 159.267 728.339 160.52L724.739 159C725.246 157.373 726.232 156.067 727.699 155.08C729.192 154.093 731.112 153.6 733.459 153.6C735.059 153.6 736.472 153.867 737.699 154.4C738.926 154.907 739.886 155.68 740.579 156.72C741.299 157.76 741.659 159.093 741.659 160.72V169.64C741.659 170.627 742.152 171.12 743.139 171.12C743.619 171.12 744.086 171.053 744.539 170.92L744.299 173.88C743.686 174.173 742.912 174.32 741.979 174.32C741.126 174.32 740.352 174.173 739.659 173.88C738.992 173.56 738.459 173.093 738.059 172.48C737.686 171.84 737.499 171.053 737.499 170.12V169.84L738.379 169.8C738.139 170.84 737.646 171.707 736.899 172.4C736.152 173.067 735.286 173.573 734.299 173.92C733.312 174.24 732.312 174.4 731.299 174.4C730.046 174.4 728.912 174.2 727.899 173.8C726.912 173.4 726.126 172.8 725.539 172C724.979 171.173 724.699 170.16 724.699 168.96C724.699 167.467 725.179 166.24 726.139 165.28C727.126 164.32 728.512 163.667 730.299 163.32L738.059 161.8L738.019 164.8L732.379 165.96C731.259 166.173 730.419 166.48 729.859 166.88C729.299 167.28 729.019 167.867 729.019 168.64C729.019 169.387 729.299 169.987 729.859 170.44C730.446 170.867 731.219 171.08 732.179 171.08C732.846 171.08 733.486 171 734.099 170.84C734.739 170.68 735.312 170.427 735.819 170.08C736.326 169.707 736.712 169.24 736.979 168.68C737.272 168.093 737.419 167.4 737.419 166.6V161.16ZM752.832 145V168.4C752.832 169.387 753.005 170.067 753.352 170.44C753.698 170.813 754.272 171 755.072 171C755.552 171 755.952 170.973 756.272 170.92C756.618 170.84 757.045 170.707 757.552 170.52L757.072 173.72C756.618 173.933 756.098 174.093 755.512 174.2C754.925 174.333 754.338 174.4 753.752 174.4C751.965 174.4 750.645 173.947 749.792 173.04C748.965 172.107 748.552 170.68 748.552 168.76V145H752.832ZM797.51 154H802.15L795.43 174H790.75L785.71 159.16L780.95 174H776.27L769.59 154H774.19L778.75 169.8L783.71 154H787.99L792.95 169.8L797.51 154ZM808.449 150.64C807.515 150.64 806.795 150.413 806.289 149.96C805.809 149.48 805.569 148.813 805.569 147.96C805.569 147.107 805.809 146.453 806.289 146C806.795 145.547 807.515 145.32 808.449 145.32C809.355 145.32 810.049 145.547 810.529 146C811.035 146.453 811.289 147.107 811.289 147.96C811.289 148.813 811.035 149.48 810.529 149.96C810.049 150.413 809.355 150.64 808.449 150.64ZM810.569 154V174H806.289V154H810.569ZM823.105 148.12V168C823.105 168.987 823.359 169.707 823.865 170.16C824.399 170.613 825.105 170.84 825.985 170.84C826.705 170.84 827.332 170.733 827.865 170.52C828.399 170.28 828.892 169.96 829.345 169.56L830.305 172.68C829.692 173.213 828.932 173.64 828.025 173.96C827.145 174.253 826.159 174.4 825.065 174.4C823.919 174.4 822.865 174.213 821.905 173.84C820.945 173.467 820.199 172.867 819.665 172.04C819.132 171.187 818.852 170.08 818.825 168.72V149.32L823.105 148.12ZM829.985 154V157.36H814.985V154H829.985ZM834.375 174V145H838.655V157.2C839.321 155.947 840.215 155.04 841.335 154.48C842.481 153.893 843.748 153.6 845.135 153.6C846.548 153.6 847.815 153.88 848.935 154.44C850.081 154.973 850.988 155.787 851.655 156.88C852.321 157.973 852.655 159.36 852.655 161.04V174H848.375V162.4C848.375 160.427 847.961 159.053 847.135 158.28C846.335 157.507 845.321 157.12 844.095 157.12C843.241 157.12 842.388 157.333 841.535 157.76C840.708 158.16 840.015 158.827 839.455 159.76C838.921 160.667 838.655 161.893 838.655 163.44V174H834.375ZM880.828 153.6C882.775 153.6 884.495 154.013 885.988 154.84C887.481 155.667 888.641 156.867 889.468 158.44C890.321 159.987 890.748 161.84 890.748 164C890.748 166.16 890.321 168.027 889.468 169.6C888.641 171.147 887.481 172.333 885.988 173.16C884.495 173.987 882.775 174.4 880.828 174.4C878.881 174.4 877.161 173.987 875.668 173.16C874.175 172.333 873.001 171.147 872.148 169.6C871.295 168.027 870.868 166.16 870.868 164C870.868 161.84 871.295 159.987 872.148 158.44C873.001 156.867 874.175 155.667 875.668 154.84C877.161 154.013 878.881 153.6 880.828 153.6ZM880.828 156.96C879.628 156.96 878.601 157.24 877.748 157.8C876.921 158.333 876.281 159.12 875.828 160.16C875.375 161.2 875.148 162.48 875.148 164C875.148 165.493 875.375 166.773 875.828 167.84C876.281 168.88 876.921 169.68 877.748 170.24C878.601 170.773 879.628 171.04 880.828 171.04C882.028 171.04 883.041 170.773 883.868 170.24C884.695 169.68 885.335 168.88 885.788 167.84C886.241 166.773 886.468 165.493 886.468 164C886.468 162.48 886.241 161.2 885.788 160.16C885.335 159.12 884.695 158.333 883.868 157.8C883.041 157.24 882.028 156.96 880.828 156.96ZM909.175 154H913.655L905.695 174H901.015L893.015 154H897.695L903.375 170.28L909.175 154ZM925.987 174.4C923.987 174.4 922.227 173.987 920.707 173.16C919.187 172.333 918.001 171.147 917.147 169.6C916.321 168.027 915.907 166.16 915.907 164C915.907 161.84 916.321 159.987 917.147 158.44C918.001 156.867 919.174 155.667 920.667 154.84C922.161 154.013 923.854 153.6 925.747 153.6C927.694 153.6 929.347 154 930.707 154.8C932.067 155.6 933.107 156.693 933.827 158.08C934.547 159.467 934.907 161.04 934.907 162.8C934.907 163.28 934.894 163.733 934.867 164.16C934.841 164.587 934.801 164.96 934.747 165.28H918.667V162H932.867L930.747 162.64C930.747 160.827 930.294 159.44 929.387 158.48C928.481 157.493 927.241 157 925.667 157C924.521 157 923.521 157.267 922.667 157.8C921.814 158.333 921.161 159.133 920.707 160.2C920.254 161.24 920.027 162.52 920.027 164.04C920.027 165.533 920.267 166.8 920.747 167.84C921.227 168.88 921.907 169.667 922.787 170.2C923.667 170.733 924.707 171 925.907 171C927.241 171 928.321 170.747 929.147 170.24C929.974 169.733 930.627 169.027 931.107 168.12L934.507 169.72C934.027 170.68 933.374 171.52 932.547 172.24C931.747 172.933 930.787 173.467 929.667 173.84C928.547 174.213 927.321 174.4 925.987 174.4ZM940.312 174V154H943.952L944.352 157.6C944.886 156.293 945.672 155.307 946.712 154.64C947.779 153.947 949.086 153.6 950.632 153.6C951.032 153.6 951.432 153.64 951.832 153.72C952.232 153.773 952.566 153.867 952.832 154L952.232 157.76C951.939 157.653 951.606 157.573 951.232 157.52C950.886 157.44 950.406 157.4 949.792 157.4C948.966 157.4 948.152 157.627 947.352 158.08C946.552 158.507 945.886 159.16 945.352 160.04C944.846 160.92 944.592 162.04 944.592 163.4V174H940.312ZM973.198 174V155.88C973.198 155.347 973.198 154.8 973.198 154.24C973.225 153.653 973.251 153.04 973.278 152.4C972.371 153.28 971.331 154.04 970.158 154.68C969.011 155.293 967.825 155.733 966.598 156L965.798 152.28C966.358 152.2 967.011 152.013 967.758 151.72C968.505 151.427 969.278 151.053 970.078 150.6C970.878 150.147 971.611 149.667 972.278 149.16C972.945 148.627 973.465 148.107 973.838 147.6H977.438V174H973.198ZM993.732 174.4C990.559 174.4 988.065 173.253 986.252 170.96C984.465 168.64 983.572 165.253 983.572 160.8C983.572 156.347 984.465 152.973 986.252 150.68C988.065 148.36 990.559 147.2 993.732 147.2C996.932 147.2 999.425 148.36 1001.21 150.68C1003.03 152.973 1003.93 156.347 1003.93 160.8C1003.93 165.253 1003.03 168.64 1001.21 170.96C999.425 173.253 996.932 174.4 993.732 174.4ZM993.732 170.76C995.012 170.76 996.079 170.4 996.932 169.68C997.812 168.933 998.465 167.827 998.892 166.36C999.345 164.867 999.572 163.013 999.572 160.8C999.572 158.587 999.345 156.747 998.892 155.28C998.465 153.787 997.812 152.68 996.932 151.96C996.079 151.213 995.012 150.84 993.732 150.84C992.452 150.84 991.372 151.213 990.492 151.96C989.639 152.68 988.999 153.787 988.572 155.28C988.145 156.747 987.932 158.587 987.932 160.8C987.932 163.013 988.145 164.867 988.572 166.36C988.999 167.827 989.639 168.933 990.492 169.68C991.372 170.4 992.452 170.76 993.732 170.76ZM549.884 202L541.124 224.36C540.537 225.907 539.897 227.133 539.204 228.04C538.537 228.947 537.764 229.6 536.884 230C536.004 230.4 534.977 230.6 533.804 230.6C532.844 230.6 531.951 230.467 531.124 230.2C530.324 229.96 529.617 229.627 529.004 229.2L530.044 225.88C530.551 226.307 531.084 226.627 531.644 226.84C532.231 227.053 532.857 227.16 533.524 227.16C534.244 227.16 534.884 226.96 535.444 226.56C536.031 226.187 536.551 225.427 537.004 224.28L537.884 222.12L535.764 217.16L529.524 202H534.324L538.764 214.56L539.924 218.32L541.244 214.2L545.444 202H549.884ZM562.218 222.4C560.218 222.4 558.458 221.987 556.938 221.16C555.418 220.333 554.231 219.147 553.378 217.6C552.551 216.027 552.138 214.16 552.138 212C552.138 209.84 552.551 207.987 553.378 206.44C554.231 204.867 555.404 203.667 556.898 202.84C558.391 202.013 560.084 201.6 561.978 201.6C563.924 201.6 565.578 202 566.938 202.8C568.298 203.6 569.338 204.693 570.058 206.08C570.778 207.467 571.138 209.04 571.138 210.8C571.138 211.28 571.124 211.733 571.098 212.16C571.071 212.587 571.031 212.96 570.978 213.28H554.898V210H569.098L566.978 210.64C566.978 208.827 566.524 207.44 565.618 206.48C564.711 205.493 563.471 205 561.898 205C560.751 205 559.751 205.267 558.898 205.8C558.044 206.333 557.391 207.133 556.938 208.2C556.484 209.24 556.258 210.52 556.258 212.04C556.258 213.533 556.498 214.8 556.978 215.84C557.458 216.88 558.138 217.667 559.018 218.2C559.898 218.733 560.938 219 562.138 219C563.471 219 564.551 218.747 565.378 218.24C566.204 217.733 566.858 217.027 567.338 216.12L570.738 217.72C570.258 218.68 569.604 219.52 568.778 220.24C567.978 220.933 567.018 221.467 565.898 221.84C564.778 222.213 563.551 222.4 562.218 222.4ZM588.103 209.16C588.103 207.827 587.729 206.8 586.983 206.08C586.263 205.333 585.263 204.96 583.983 204.96C582.783 204.96 581.756 205.24 580.903 205.8C580.049 206.36 579.423 207.267 579.023 208.52L575.423 207C575.929 205.373 576.916 204.067 578.383 203.08C579.876 202.093 581.796 201.6 584.143 201.6C585.743 201.6 587.156 201.867 588.383 202.4C589.609 202.907 590.569 203.68 591.263 204.72C591.983 205.76 592.343 207.093 592.343 208.72V217.64C592.343 218.627 592.836 219.12 593.823 219.12C594.303 219.12 594.769 219.053 595.223 218.92L594.983 221.88C594.369 222.173 593.596 222.32 592.663 222.32C591.809 222.32 591.036 222.173 590.343 221.88C589.676 221.56 589.143 221.093 588.743 220.48C588.369 219.84 588.183 219.053 588.183 218.12V217.84L589.063 217.8C588.823 218.84 588.329 219.707 587.583 220.4C586.836 221.067 585.969 221.573 584.983 221.92C583.996 222.24 582.996 222.4 581.983 222.4C580.729 222.4 579.596 222.2 578.583 221.8C577.596 221.4 576.809 220.8 576.223 220C575.663 219.173 575.383 218.16 575.383 216.96C575.383 215.467 575.863 214.24 576.823 213.28C577.809 212.32 579.196 211.667 580.983 211.32L588.743 209.8L588.703 212.8L583.063 213.96C581.943 214.173 581.103 214.48 580.543 214.88C579.983 215.28 579.703 215.867 579.703 216.64C579.703 217.387 579.983 217.987 580.543 218.44C581.129 218.867 581.903 219.08 582.863 219.08C583.529 219.08 584.169 219 584.783 218.84C585.423 218.68 585.996 218.427 586.503 218.08C587.009 217.707 587.396 217.24 587.663 216.68C587.956 216.093 588.103 215.4 588.103 214.6V209.16ZM599.355 222V202H602.995L603.395 205.6C603.928 204.293 604.715 203.307 605.755 202.64C606.822 201.947 608.128 201.6 609.675 201.6C610.075 201.6 610.475 201.64 610.875 201.72C611.275 201.773 611.608 201.867 611.875 202L611.275 205.76C610.982 205.653 610.648 205.573 610.275 205.52C609.928 205.44 609.448 205.4 608.835 205.4C608.008 205.4 607.195 205.627 606.395 206.08C605.595 206.507 604.928 207.16 604.395 208.04C603.888 208.92 603.635 210.04 603.635 211.4V222H599.355ZM622.815 222.4C620.815 222.4 618.988 222.013 617.335 221.24C615.681 220.467 614.375 219.373 613.415 217.96L616.375 215.4C616.961 216.493 617.801 217.373 618.895 218.04C620.015 218.68 621.348 219 622.895 219C624.121 219 625.095 218.787 625.815 218.36C626.535 217.933 626.895 217.333 626.895 216.56C626.895 216.053 626.721 215.613 626.375 215.24C626.055 214.84 625.428 214.533 624.495 214.32L620.295 213.44C618.161 213.013 616.641 212.333 615.735 211.4C614.828 210.44 614.375 209.227 614.375 207.76C614.375 206.667 614.695 205.653 615.335 204.72C615.975 203.787 616.908 203.04 618.135 202.48C619.388 201.893 620.881 201.6 622.615 201.6C624.615 201.6 626.321 201.96 627.735 202.68C629.148 203.373 630.228 204.373 630.975 205.68L628.015 208.16C627.508 207.093 626.761 206.307 625.775 205.8C624.788 205.267 623.761 205 622.695 205C621.841 205 621.108 205.107 620.495 205.32C619.881 205.533 619.415 205.827 619.095 206.2C618.775 206.573 618.615 207.013 618.615 207.52C618.615 208.053 618.815 208.52 619.215 208.92C619.615 209.32 620.335 209.627 621.375 209.84L625.935 210.8C627.855 211.173 629.201 211.813 629.975 212.72C630.775 213.6 631.175 214.68 631.175 215.96C631.175 217.24 630.841 218.373 630.175 219.36C629.508 220.32 628.548 221.067 627.295 221.6C626.041 222.133 624.548 222.4 622.815 222.4ZM658.074 201.6C660.021 201.6 661.741 202.013 663.234 202.84C664.728 203.667 665.888 204.867 666.714 206.44C667.568 207.987 667.994 209.84 667.994 212C667.994 214.16 667.568 216.027 666.714 217.6C665.888 219.147 664.728 220.333 663.234 221.16C661.741 221.987 660.021 222.4 658.074 222.4C656.128 222.4 654.408 221.987 652.914 221.16C651.421 220.333 650.248 219.147 649.394 217.6C648.541 216.027 648.114 214.16 648.114 212C648.114 209.84 648.541 207.987 649.394 206.44C650.248 204.867 651.421 203.667 652.914 202.84C654.408 202.013 656.128 201.6 658.074 201.6ZM658.074 204.96C656.874 204.96 655.848 205.24 654.994 205.8C654.168 206.333 653.528 207.12 653.074 208.16C652.621 209.2 652.394 210.48 652.394 212C652.394 213.493 652.621 214.773 653.074 215.84C653.528 216.88 654.168 217.68 654.994 218.24C655.848 218.773 656.874 219.04 658.074 219.04C659.274 219.04 660.288 218.773 661.114 218.24C661.941 217.68 662.581 216.88 663.034 215.84C663.488 214.773 663.714 213.493 663.714 212C663.714 210.48 663.488 209.2 663.034 208.16C662.581 207.12 661.941 206.333 661.114 205.8C660.288 205.24 659.274 204.96 658.074 204.96ZM681.585 192.72C682.412 192.72 683.158 192.813 683.825 193C684.518 193.16 685.038 193.387 685.385 193.68L684.585 196.76C684.292 196.573 683.958 196.44 683.585 196.36C683.212 196.253 682.785 196.2 682.305 196.2C681.212 196.2 680.345 196.453 679.705 196.96C679.092 197.467 678.785 198.293 678.785 199.44V202.36L678.905 203.44V222H674.625V199.12C674.625 198.107 674.772 197.2 675.065 196.4C675.385 195.6 675.852 194.933 676.465 194.4C677.078 193.84 677.812 193.427 678.665 193.16C679.545 192.867 680.518 192.72 681.585 192.72ZM685.265 202V205.36H670.865V202H685.265ZM709.6 222.4C707.6 222.4 705.84 221.987 704.32 221.16C702.8 220.333 701.614 219.147 700.76 217.6C699.934 216.027 699.52 214.16 699.52 212C699.52 209.84 699.934 207.987 700.76 206.44C701.614 204.867 702.787 203.667 704.28 202.84C705.774 202.013 707.467 201.6 709.36 201.6C711.307 201.6 712.96 202 714.32 202.8C715.68 203.6 716.72 204.693 717.44 206.08C718.16 207.467 718.52 209.04 718.52 210.8C718.52 211.28 718.507 211.733 718.48 212.16C718.454 212.587 718.414 212.96 718.36 213.28H702.28V210H716.48L714.36 210.64C714.36 208.827 713.907 207.44 713 206.48C712.094 205.493 710.854 205 709.28 205C708.134 205 707.134 205.267 706.28 205.8C705.427 206.333 704.774 207.133 704.32 208.2C703.867 209.24 703.64 210.52 703.64 212.04C703.64 213.533 703.88 214.8 704.36 215.84C704.84 216.88 705.52 217.667 706.4 218.2C707.28 218.733 708.32 219 709.52 219C710.854 219 711.934 218.747 712.76 218.24C713.587 217.733 714.24 217.027 714.72 216.12L718.12 217.72C717.64 218.68 716.987 219.52 716.16 220.24C715.36 220.933 714.4 221.467 713.28 221.84C712.16 222.213 710.934 222.4 709.6 222.4ZM726.225 202L731.865 210.56L732.665 210.68L740.785 222H735.705L729.825 213.2L728.905 212.88L721.065 202H726.225ZM740.665 202L732.825 212.72L731.945 212.68L725.545 222H720.665L729.185 210.6L730.025 210.68L735.745 202H740.665ZM745.097 230.4V202H748.897L749.217 207.6L748.657 206.92C748.977 205.88 749.471 204.96 750.137 204.16C750.804 203.36 751.631 202.733 752.617 202.28C753.631 201.827 754.737 201.6 755.937 201.6C757.564 201.6 759.044 202.013 760.377 202.84C761.711 203.667 762.764 204.853 763.537 206.4C764.311 207.92 764.697 209.773 764.697 211.96C764.697 214.147 764.297 216.027 763.497 217.6C762.724 219.147 761.657 220.333 760.297 221.16C758.964 221.987 757.471 222.4 755.817 222.4C754.111 222.4 752.657 221.96 751.457 221.08C750.257 220.173 749.404 219.027 748.897 217.64L749.377 216.96V230.4H745.097ZM754.897 218.92C756.631 218.92 757.977 218.307 758.937 217.08C759.924 215.853 760.417 214.16 760.417 212C760.417 209.84 759.937 208.147 758.977 206.92C758.017 205.667 756.684 205.04 754.977 205.04C753.857 205.04 752.871 205.333 752.017 205.92C751.191 206.48 750.537 207.28 750.057 208.32C749.604 209.333 749.377 210.56 749.377 212C749.377 213.413 749.604 214.64 750.057 215.68C750.511 216.72 751.151 217.52 751.977 218.08C752.804 218.64 753.777 218.92 754.897 218.92ZM778.975 222.4C776.975 222.4 775.215 221.987 773.695 221.16C772.175 220.333 770.989 219.147 770.135 217.6C769.309 216.027 768.895 214.16 768.895 212C768.895 209.84 769.309 207.987 770.135 206.44C770.989 204.867 772.162 203.667 773.655 202.84C775.149 202.013 776.842 201.6 778.735 201.6C780.682 201.6 782.335 202 783.695 202.8C785.055 203.6 786.095 204.693 786.815 206.08C787.535 207.467 787.895 209.04 787.895 210.8C787.895 211.28 787.882 211.733 787.855 212.16C787.829 212.587 787.789 212.96 787.735 213.28H771.655V210H785.855L783.735 210.64C783.735 208.827 783.282 207.44 782.375 206.48C781.469 205.493 780.229 205 778.655 205C777.509 205 776.509 205.267 775.655 205.8C774.802 206.333 774.149 207.133 773.695 208.2C773.242 209.24 773.015 210.52 773.015 212.04C773.015 213.533 773.255 214.8 773.735 215.84C774.215 216.88 774.895 217.667 775.775 218.2C776.655 218.733 777.695 219 778.895 219C780.229 219 781.309 218.747 782.135 218.24C782.962 217.733 783.615 217.027 784.095 216.12L787.495 217.72C787.015 218.68 786.362 219.52 785.535 220.24C784.735 220.933 783.775 221.467 782.655 221.84C781.535 222.213 780.309 222.4 778.975 222.4ZM793.3 222V202H796.94L797.34 205.6C797.874 204.293 798.66 203.307 799.7 202.64C800.767 201.947 802.074 201.6 803.62 201.6C804.02 201.6 804.42 201.64 804.82 201.72C805.22 201.773 805.554 201.867 805.82 202L805.22 205.76C804.927 205.653 804.594 205.573 804.22 205.52C803.874 205.44 803.394 205.4 802.78 205.4C801.954 205.4 801.14 205.627 800.34 206.08C799.54 206.507 798.874 207.16 798.34 208.04C797.834 208.92 797.58 210.04 797.58 211.4V222H793.3ZM812.023 198.64C811.09 198.64 810.37 198.413 809.863 197.96C809.383 197.48 809.143 196.813 809.143 195.96C809.143 195.107 809.383 194.453 809.863 194C810.37 193.547 811.09 193.32 812.023 193.32C812.93 193.32 813.623 193.547 814.103 194C814.61 194.453 814.863 195.107 814.863 195.96C814.863 196.813 814.61 197.48 814.103 197.96C813.623 198.413 812.93 198.64 812.023 198.64ZM814.143 202V222H809.863V202H814.143ZM829.64 222.4C827.64 222.4 825.88 221.987 824.36 221.16C822.84 220.333 821.653 219.147 820.8 217.6C819.973 216.027 819.56 214.16 819.56 212C819.56 209.84 819.973 207.987 820.8 206.44C821.653 204.867 822.826 203.667 824.32 202.84C825.813 202.013 827.506 201.6 829.4 201.6C831.346 201.6 833 202 834.36 202.8C835.72 203.6 836.76 204.693 837.48 206.08C838.2 207.467 838.56 209.04 838.56 210.8C838.56 211.28 838.546 211.733 838.52 212.16C838.493 212.587 838.453 212.96 838.4 213.28H822.32V210H836.52L834.4 210.64C834.4 208.827 833.946 207.44 833.04 206.48C832.133 205.493 830.893 205 829.32 205C828.173 205 827.173 205.267 826.32 205.8C825.466 206.333 824.813 207.133 824.36 208.2C823.906 209.24 823.68 210.52 823.68 212.04C823.68 213.533 823.92 214.8 824.4 215.84C824.88 216.88 825.56 217.667 826.44 218.2C827.32 218.733 828.36 219 829.56 219C830.893 219 831.973 218.747 832.8 218.24C833.626 217.733 834.28 217.027 834.76 216.12L838.16 217.72C837.68 218.68 837.026 219.52 836.2 220.24C835.4 220.933 834.44 221.467 833.32 221.84C832.2 222.213 830.973 222.4 829.64 222.4ZM843.965 222V202H847.765L848.045 207.2L847.485 206.64C847.858 205.493 848.391 204.547 849.085 203.8C849.805 203.027 850.645 202.467 851.605 202.12C852.591 201.773 853.631 201.6 854.725 201.6C856.138 201.6 857.405 201.88 858.525 202.44C859.671 202.973 860.578 203.787 861.245 204.88C861.911 205.973 862.245 207.36 862.245 209.04V222H857.965V210.36C857.965 208.387 857.551 207.027 856.725 206.28C855.925 205.507 854.911 205.12 853.685 205.12C852.805 205.12 851.951 205.333 851.125 205.76C850.298 206.16 849.605 206.813 849.045 207.72C848.511 208.627 848.245 209.84 848.245 211.36V222H843.965ZM877.37 201.6C878.97 201.6 880.33 201.84 881.45 202.32C882.597 202.773 883.557 203.427 884.33 204.28C885.103 205.133 885.69 206.107 886.09 207.2L882.05 208.8C881.703 207.573 881.143 206.64 880.37 206C879.623 205.333 878.637 205 877.41 205C876.21 205 875.183 205.28 874.33 205.84C873.477 206.373 872.823 207.16 872.37 208.2C871.943 209.24 871.73 210.52 871.73 212.04C871.73 213.533 871.957 214.8 872.41 215.84C872.863 216.88 873.517 217.667 874.37 218.2C875.223 218.733 876.237 219 877.41 219C878.317 219 879.103 218.853 879.77 218.56C880.437 218.24 880.983 217.8 881.41 217.24C881.863 216.653 882.17 215.947 882.33 215.12L886.21 216.44C885.837 217.64 885.25 218.693 884.45 219.6C883.677 220.48 882.703 221.173 881.53 221.68C880.357 222.16 879.01 222.4 877.49 222.4C875.517 222.4 873.77 221.987 872.25 221.16C870.73 220.333 869.543 219.147 868.69 217.6C867.863 216.027 867.45 214.16 867.45 212C867.45 209.84 867.863 207.987 868.69 206.44C869.543 204.867 870.717 203.667 872.21 202.84C873.73 202.013 875.45 201.6 877.37 201.6ZM899.991 222.4C897.991 222.4 896.231 221.987 894.711 221.16C893.191 220.333 892.004 219.147 891.151 217.6C890.324 216.027 889.911 214.16 889.911 212C889.911 209.84 890.324 207.987 891.151 206.44C892.004 204.867 893.178 203.667 894.671 202.84C896.164 202.013 897.858 201.6 899.751 201.6C901.698 201.6 903.351 202 904.711 202.8C906.071 203.6 907.111 204.693 907.831 206.08C908.551 207.467 908.911 209.04 908.911 210.8C908.911 211.28 908.898 211.733 908.871 212.16C908.844 212.587 908.804 212.96 908.751 213.28H892.671V210H906.871L904.751 210.64C904.751 208.827 904.298 207.44 903.391 206.48C902.484 205.493 901.244 205 899.671 205C898.524 205 897.524 205.267 896.671 205.8C895.818 206.333 895.164 207.133 894.711 208.2C894.258 209.24 894.031 210.52 894.031 212.04C894.031 213.533 894.271 214.8 894.751 215.84C895.231 216.88 895.911 217.667 896.791 218.2C897.671 218.733 898.711 219 899.911 219C901.244 219 902.324 218.747 903.151 218.24C903.978 217.733 904.631 217.027 905.111 216.12L908.511 217.72C908.031 218.68 907.378 219.52 906.551 220.24C905.751 220.933 904.791 221.467 903.671 221.84C902.551 222.213 901.324 222.4 899.991 222.4Z" fill="#0F2F64"/>
<path d="M1329.96 319.386V263.943H1385.33C1385.33 294.587 1360.56 319.386 1329.96 319.386Z" fill="#1EBCB4"/>
<path d="M1440.4 264.309H1384.96V208.943C1415.61 208.943 1440.4 233.707 1440.4 264.309Z" fill="#A27FFF"/>
<path d="M111.245 244.943C86.844 244.943 66.9616 264.853 66.9616 289.288C66.9616 313.723 86.844 333.633 111.245 333.633L111.245 244.943Z" fill="#1EBCB4"/>
<path d="M-0.000350952 133L-0.000350952 243.709L110.555 243.709C110.555 182.598 61.0263 133 -0.000350952 133Z" fill="#FFB201"/>
</svg>
